<?xml version="1.0" encoding="iso-8859-1"?>
<svg width="249" height="182" viewBox="0 0 249 182" fill="none" xmlns="http://www.w3.org/2000/svg">
<path d="M105.833 37.3334L105.833 39.6667C105.833 43.5327 108.967 46.6667 112.833 46.6667L136.166 46.6667C140.032 46.6667 143.166 43.5327 143.166 39.6667L143.166 37.3334M133.833 18.6667L124.5 9.33335M124.5 9.33335L115.166 18.6667M124.5 9.33335L124.5 37.3334" stroke="#84160E" stroke-width="4.66667" stroke-linecap="round" stroke-linejoin="round"/>
<path d="M26.4619 76.8C27.8619 76.8 28.9819 77.1667 29.8219 77.9C30.6752 78.6333 31.1019 79.6467 31.1019 80.94C31.1019 82.22 30.6752 83.2333 29.8219 83.98C28.9819 84.7133 27.8619 85.08 26.4619 85.08H23.5219V90H21.3819V76.8H26.4619ZM26.1219 83.24C27.0685 83.24 27.7619 83.0467 28.2019 82.66C28.6552 82.2733 28.8819 81.7 28.8819 80.94C28.8819 80.18 28.6552 79.6067 28.2019 79.22C27.7619 78.82 27.0685 78.62 26.1219 78.62H23.5219V83.24H26.1219ZM37.1809 90.2C36.5276 90.2 35.9209 90.08 35.3609 89.84C34.8143 89.6 34.3743 89.2133 34.0409 88.68C33.7076 88.1467 33.5409 87.4533 33.5409 86.6V80H35.6809V86.06C35.6809 86.9667 35.8676 87.5933 36.2409 87.94C36.6276 88.2733 37.1743 88.44 37.8809 88.44C38.3343 88.44 38.7609 88.34 39.1609 88.14C39.5609 87.9267 39.8809 87.6 40.1209 87.16C40.3743 86.7067 40.5009 86.1267 40.5009 85.42V80H42.6409V90H40.7609L40.6609 88.38C40.3143 89.0067 39.8476 89.4667 39.2609 89.76C38.6743 90.0533 37.9809 90.2 37.1809 90.2ZM51.3442 90.2C50.5709 90.2 49.8842 90.0067 49.2842 89.62C48.6976 89.22 48.2576 88.7067 47.9642 88.08L47.8642 90H45.9842V75.5H48.1242V81.64C48.4309 81.0933 48.8642 80.6533 49.4242 80.32C49.9842 79.9733 50.6442 79.8 51.4042 79.8C52.2176 79.8 52.9509 80.0067 53.6042 80.42C54.2709 80.8333 54.7976 81.4333 55.1842 82.22C55.5842 82.9933 55.7842 83.9267 55.7842 85.02C55.7842 86.1 55.5842 87.0267 55.1842 87.8C54.7976 88.5733 54.2642 89.1667 53.5842 89.58C52.9176 89.9933 52.1709 90.2 51.3442 90.2ZM50.8842 88.48C51.7509 88.48 52.4242 88.1733 52.9042 87.56C53.3976 86.9333 53.6442 86.08 53.6442 85C53.6442 83.92 53.4042 83.0733 52.9242 82.46C52.4442 81.8467 51.7709 81.54 50.9042 81.54C50.0642 81.54 49.3909 81.86 48.8842 82.5C48.3776 83.1267 48.1242 83.9733 48.1242 85.04C48.1242 86.1067 48.3776 86.9467 48.8842 87.56C49.3909 88.1733 50.0576 88.48 50.8842 88.48ZM60.6033 75.5V87.2C60.6033 87.6933 60.6899 88.0333 60.8633 88.22C61.0366 88.4067 61.3233 88.5 61.7233 88.5C61.9633 88.5 62.1633 88.4867 62.3233 88.46C62.4966 88.42 62.7099 88.3533 62.9633 88.26L62.7233 89.86C62.2566 90.0867 61.7033 90.2 61.0633 90.2C60.1699 90.2 59.5099 89.9733 59.0833 89.52C58.6699 89.0667 58.4633 88.3533 58.4633 87.38V75.5H60.6033ZM65.8338 78.32C65.3671 78.32 65.0071 78.2067 64.7538 77.98C64.5138 77.74 64.3938 77.4067 64.3938 76.98C64.3938 76.5533 64.5138 76.2267 64.7538 76C65.0071 75.7733 65.3671 75.66 65.8338 75.66C66.2871 75.66 66.6338 75.7733 66.8738 76C67.1271 76.2267 67.2538 76.5533 67.2538 76.98C67.2538 77.4067 67.1271 77.74 66.8738 77.98C66.6338 78.2067 66.2871 78.32 65.8338 78.32ZM66.8938 80V90H64.7538V80H66.8938ZM74.042 90.2C73.042 90.2 72.1287 90.0067 71.302 89.62C70.4754 89.2333 69.822 88.6867 69.342 87.98L70.822 86.7C71.1154 87.2467 71.5354 87.6867 72.082 88.02C72.642 88.34 73.3087 88.5 74.082 88.5C74.6954 88.5 75.182 88.3933 75.542 88.18C75.902 87.9667 76.082 87.6667 76.082 87.28C76.082 87.0267 75.9954 86.8067 75.822 86.62C75.662 86.42 75.3487 86.2667 74.882 86.16L72.782 85.72C71.7154 85.5067 70.9554 85.16 70.502 84.68C70.0487 84.2 69.822 83.6 69.822 82.88C69.822 82.3333 69.982 81.8267 70.302 81.36C70.6354 80.8933 71.1087 80.52 71.722 80.24C72.3354 79.9467 73.0754 79.8 73.942 79.8C74.9287 79.8 75.7754 79.98 76.482 80.34C77.202 80.6867 77.7487 81.1867 78.122 81.84L76.642 83.08C76.3754 82.5467 75.9954 82.1533 75.502 81.9C75.022 81.6333 74.5154 81.5 73.982 81.5C73.3287 81.5 72.822 81.62 72.462 81.86C72.1154 82.0867 71.942 82.3867 71.942 82.76C71.942 83.0133 72.042 83.2467 72.242 83.46C72.442 83.66 72.802 83.8133 73.322 83.92L75.602 84.4C76.562 84.5867 77.2354 84.9067 77.622 85.36C78.022 85.8 78.222 86.34 78.222 86.98C78.222 87.94 77.8487 88.72 77.102 89.32C76.3554 89.9067 75.3354 90.2 74.042 90.2ZM80.828 90V75.5H82.968V81.6C83.3013 80.9733 83.748 80.52 84.308 80.24C84.8813 79.9467 85.5146 79.8 86.208 79.8C86.9146 79.8 87.548 79.94 88.108 80.22C88.6813 80.4867 89.1346 80.9 89.468 81.46C89.8013 82.0067 89.968 82.6933 89.968 83.52V90H87.828V84.2C87.828 83.2 87.6213 82.5133 87.208 82.14C86.808 81.7533 86.3013 81.56 85.688 81.56C85.248 81.56 84.8213 81.6667 84.408 81.88C83.9946 82.08 83.648 82.4133 83.368 82.88C83.1013 83.3333 82.968 83.9467 82.968 84.72V90H80.828ZM110.955 86.5C110.555 87.7 109.868 88.62 108.895 89.26C107.921 89.8867 106.788 90.2 105.495 90.2C104.215 90.2 103.108 89.9267 102.175 89.38C101.255 88.8333 100.541 88.0533 100.035 87.04C99.528 86.0133 99.2747 84.8 99.2747 83.4C99.2747 82 99.528 80.7933 100.035 79.78C100.541 78.7533 101.255 77.9667 102.175 77.42C103.108 76.8733 104.208 76.6 105.475 76.6C106.781 76.6 107.888 76.8733 108.795 77.42C109.701 77.9667 110.355 78.7733 110.755 79.84L108.735 80.74C108.228 79.22 107.181 78.46 105.595 78.46C104.355 78.46 103.361 78.8933 102.615 79.76C101.881 80.6133 101.515 81.8267 101.515 83.4C101.515 84.96 101.868 86.1733 102.575 87.04C103.281 87.9067 104.268 88.34 105.535 88.34C106.348 88.34 107.048 88.1333 107.635 87.72C108.235 87.2933 108.661 86.66 108.915 85.82L110.955 86.5ZM117.727 79.8C118.7 79.8 119.56 80.0067 120.307 80.42C121.053 80.8333 121.633 81.4333 122.047 82.22C122.473 82.9933 122.687 83.92 122.687 85C122.687 86.08 122.473 87.0133 122.047 87.8C121.633 88.5733 121.053 89.1667 120.307 89.58C119.56 89.9933 118.7 90.2 117.727 90.2C116.753 90.2 115.893 89.9933 115.147 89.58C114.4 89.1667 113.813 88.5733 113.387 87.8C112.96 87.0133 112.747 86.08 112.747 85C112.747 83.92 112.96 82.9933 113.387 82.22C113.813 81.4333 114.4 80.8333 115.147 80.42C115.893 80.0067 116.753 79.8 117.727 79.8ZM117.727 81.48C116.847 81.48 116.153 81.7867 115.647 82.4C115.14 83 114.887 83.8667 114.887 85C114.887 86.1333 115.14 87.0067 115.647 87.62C116.153 88.22 116.847 88.52 117.727 88.52C118.607 88.52 119.293 88.22 119.787 87.62C120.293 87.0067 120.547 86.1333 120.547 85C120.547 83.8667 120.293 83 119.787 82.4C119.293 81.7867 118.607 81.48 117.727 81.48ZM127.459 75.5V87.2C127.459 87.6933 127.545 88.0333 127.719 88.22C127.892 88.4067 128.179 88.5 128.579 88.5C128.819 88.5 129.019 88.4867 129.179 88.46C129.352 88.42 129.565 88.3533 129.819 88.26L129.579 89.86C129.112 90.0867 128.559 90.2 127.919 90.2C127.025 90.2 126.365 89.9733 125.939 89.52C125.525 89.0667 125.319 88.3533 125.319 87.38V75.5H127.459ZM133.689 75.5V87.2C133.689 87.6933 133.776 88.0333 133.949 88.22C134.123 88.4067 134.409 88.5 134.809 88.5C135.049 88.5 135.249 88.4867 135.409 88.46C135.583 88.42 135.796 88.3533 136.049 88.26L135.809 89.86C135.343 90.0867 134.789 90.2 134.149 90.2C133.256 90.2 132.596 89.9733 132.169 89.52C131.756 89.0667 131.549 88.3533 131.549 87.38V75.5H133.689ZM143.659 83.58C143.659 82.9133 143.472 82.4 143.099 82.04C142.739 81.6667 142.239 81.48 141.599 81.48C140.999 81.48 140.479 81.62 140.039 81.9C139.612 82.18 139.305 82.6333 139.119 83.26L137.319 82.5C137.572 81.6867 138.065 81.0333 138.799 80.54C139.545 80.0467 140.505 79.8 141.679 79.8C142.465 79.8 143.165 79.9333 143.779 80.2C144.405 80.4533 144.892 80.8467 145.239 81.38C145.599 81.9 145.779 82.56 145.779 83.36V87.82C145.779 88.3133 146.025 88.56 146.519 88.56C146.759 88.56 146.992 88.5267 147.219 88.46L147.099 89.94C146.792 90.0867 146.405 90.16 145.939 90.16C145.405 90.16 144.945 90.04 144.559 89.8C144.172 89.56 143.912 89.2 143.779 88.72C143.459 89.2133 142.999 89.5867 142.399 89.84C141.799 90.08 141.199 90.2 140.599 90.2C139.652 90.2 138.865 89.9733 138.239 89.52C137.612 89.0667 137.299 88.3867 137.299 87.48C137.299 86.7467 137.539 86.14 138.019 85.66C138.512 85.18 139.205 84.8467 140.099 84.66L143.659 83.96V83.58ZM139.459 87.32C139.459 87.6933 139.599 87.9933 139.879 88.22C140.172 88.4333 140.559 88.54 141.039 88.54C141.492 88.54 141.919 88.4667 142.319 88.32C142.719 88.1733 143.039 87.9333 143.279 87.6C143.532 87.2667 143.659 86.8333 143.659 86.3V85.46L141.139 85.98C140.565 86.0867 140.139 86.24 139.859 86.44C139.592 86.64 139.459 86.9333 139.459 87.32ZM154.645 90.2C153.872 90.2 153.185 90.0067 152.585 89.62C151.998 89.22 151.558 88.7067 151.265 88.08L151.165 90H149.285V75.5H151.425V81.64C151.732 81.0933 152.165 80.6533 152.725 80.32C153.285 79.9733 153.945 79.8 154.705 79.8C155.518 79.8 156.252 80.0067 156.905 80.42C157.572 80.8333 158.098 81.4333 158.485 82.22C158.885 82.9933 159.085 83.9267 159.085 85.02C159.085 86.1 158.885 87.0267 158.485 87.8C158.098 88.5733 157.565 89.1667 156.885 89.58C156.218 89.9933 155.472 90.2 154.645 90.2ZM154.185 88.48C155.052 88.48 155.725 88.1733 156.205 87.56C156.698 86.9333 156.945 86.08 156.945 85C156.945 83.92 156.705 83.0733 156.225 82.46C155.745 81.8467 155.072 81.54 154.205 81.54C153.365 81.54 152.692 81.86 152.185 82.5C151.678 83.1267 151.425 83.9733 151.425 85.04C151.425 86.1067 151.678 86.9467 152.185 87.56C152.692 88.1733 153.358 88.48 154.185 88.48ZM166.164 79.8C167.137 79.8 167.997 80.0067 168.744 80.42C169.491 80.8333 170.071 81.4333 170.484 82.22C170.911 82.9933 171.124 83.92 171.124 85C171.124 86.08 170.911 87.0133 170.484 87.8C170.071 88.5733 169.491 89.1667 168.744 89.58C167.997 89.9933 167.137 90.2 166.164 90.2C165.191 90.2 164.331 89.9933 163.584 89.58C162.837 89.1667 162.251 88.5733 161.824 87.8C161.397 87.0133 161.184 86.08 161.184 85C161.184 83.92 161.397 82.9933 161.824 82.22C162.251 81.4333 162.837 80.8333 163.584 80.42C164.331 80.0067 165.191 79.8 166.164 79.8ZM166.164 81.48C165.284 81.48 164.591 81.7867 164.084 82.4C163.577 83 163.324 83.8667 163.324 85C163.324 86.1333 163.577 87.0067 164.084 87.62C164.591 88.22 165.284 88.52 166.164 88.52C167.044 88.52 167.731 88.22 168.224 87.62C168.731 87.0067 168.984 86.1333 168.984 85C168.984 83.8667 168.731 83 168.224 82.4C167.731 81.7867 167.044 81.48 166.164 81.48ZM173.816 90V80H175.636L175.836 81.8C176.383 80.4667 177.43 79.8 178.976 79.8C179.176 79.8 179.376 79.82 179.576 79.86C179.776 79.8867 179.943 79.9333 180.076 80L179.776 81.88C179.63 81.8267 179.463 81.7867 179.276 81.76C179.103 81.72 178.863 81.7 178.556 81.7C178.13 81.7 177.716 81.8133 177.316 82.04C176.93 82.2533 176.603 82.5867 176.336 83.04C176.083 83.48 175.956 84.0333 175.956 84.7V90H173.816ZM187.663 83.58C187.663 82.9133 187.476 82.4 187.103 82.04C186.743 81.6667 186.243 81.48 185.603 81.48C185.003 81.48 184.483 81.62 184.043 81.9C183.616 82.18 183.309 82.6333 183.123 83.26L181.323 82.5C181.576 81.6867 182.069 81.0333 182.803 80.54C183.549 80.0467 184.509 79.8 185.683 79.8C186.469 79.8 187.169 79.9333 187.783 80.2C188.409 80.4533 188.896 80.8467 189.243 81.38C189.603 81.9 189.783 82.56 189.783 83.36V87.82C189.783 88.3133 190.029 88.56 190.523 88.56C190.763 88.56 190.996 88.5267 191.223 88.46L191.103 89.94C190.796 90.0867 190.409 90.16 189.943 90.16C189.409 90.16 188.949 90.04 188.563 89.8C188.176 89.56 187.916 89.2 187.783 88.72C187.463 89.2133 187.003 89.5867 186.403 89.84C185.803 90.08 185.203 90.2 184.603 90.2C183.656 90.2 182.869 89.9733 182.243 89.52C181.616 89.0667 181.303 88.3867 181.303 87.48C181.303 86.7467 181.543 86.14 182.023 85.66C182.516 85.18 183.209 84.8467 184.103 84.66L187.663 83.96V83.58ZM183.463 87.32C183.463 87.6933 183.603 87.9933 183.883 88.22C184.176 88.4333 184.563 88.54 185.043 88.54C185.496 88.54 185.923 88.4667 186.323 88.32C186.723 88.1733 187.043 87.9333 187.283 87.6C187.536 87.2667 187.663 86.8333 187.663 86.3V85.46L185.143 85.98C184.569 86.0867 184.143 86.24 183.863 86.44C183.596 86.64 183.463 86.9333 183.463 87.32ZM199.258 80V81.68H195.818V87C195.818 87.48 195.952 87.84 196.218 88.08C196.485 88.3067 196.832 88.42 197.258 88.42C197.632 88.42 197.945 88.3667 198.198 88.26C198.465 88.14 198.712 87.98 198.938 87.78L199.418 89.34C199.112 89.6067 198.732 89.82 198.278 89.98C197.838 90.1267 197.345 90.2 196.798 90.2C195.918 90.2 195.178 89.9867 194.578 89.56C193.978 89.12 193.678 88.3867 193.678 87.36V81.68H191.758V80H193.678V77.66L195.818 77.06V80H199.258ZM202.455 78.32C201.988 78.32 201.628 78.2067 201.375 77.98C201.135 77.74 201.015 77.4067 201.015 76.98C201.015 76.5533 201.135 76.2267 201.375 76C201.628 75.7733 201.988 75.66 202.455 75.66C202.908 75.66 203.255 75.7733 203.495 76C203.748 76.2267 203.875 76.5533 203.875 76.98C203.875 77.4067 203.748 77.74 203.495 77.98C203.255 78.2067 202.908 78.32 202.455 78.32ZM203.515 80V90H201.375V80H203.515ZM211.203 79.8C212.176 79.8 213.036 80.0067 213.783 80.42C214.53 80.8333 215.11 81.4333 215.523 82.22C215.95 82.9933 216.163 83.92 216.163 85C216.163 86.08 215.95 87.0133 215.523 87.8C215.11 88.5733 214.53 89.1667 213.783 89.58C213.036 89.9933 212.176 90.2 211.203 90.2C210.23 90.2 209.37 89.9933 208.623 89.58C207.876 89.1667 207.29 88.5733 206.863 87.8C206.436 87.0133 206.223 86.08 206.223 85C206.223 83.92 206.436 82.9933 206.863 82.22C207.29 81.4333 207.876 80.8333 208.623 80.42C209.37 80.0067 210.23 79.8 211.203 79.8ZM211.203 81.48C210.323 81.48 209.63 81.7867 209.123 82.4C208.616 83 208.363 83.8667 208.363 85C208.363 86.1333 208.616 87.0067 209.123 87.62C209.63 88.22 210.323 88.52 211.203 88.52C212.083 88.52 212.77 88.22 213.263 87.62C213.77 87.0067 214.023 86.1333 214.023 85C214.023 83.8667 213.77 83 213.263 82.4C212.77 81.7867 212.083 81.48 211.203 81.48ZM218.855 90V80H220.755L220.855 81.72C221.189 81.0533 221.649 80.5667 222.235 80.26C222.835 79.9533 223.502 79.8 224.235 79.8C224.942 79.8 225.575 79.94 226.135 80.22C226.709 80.4867 227.162 80.9 227.495 81.46C227.829 82.0067 227.995 82.6933 227.995 83.52V90H225.855V84.18C225.855 83.1933 225.649 82.5133 225.235 82.14C224.835 81.7533 224.329 81.56 223.715 81.56C223.275 81.56 222.849 81.66 222.435 81.86C222.022 82.06 221.675 82.3933 221.395 82.86C221.129 83.3133 220.995 83.92 220.995 84.68V90H218.855Z" fill="black"/>
<path d="M46.6072 124.296C46.2765 125.203 45.7325 125.907 44.9752 126.408C44.2179 126.909 43.3432 127.16 42.3512 127.16C41.3485 127.16 40.4792 126.941 39.7432 126.504C39.0179 126.056 38.4525 125.427 38.0472 124.616C37.6525 123.805 37.4552 122.84 37.4552 121.72C37.4552 120.6 37.6525 119.635 38.0472 118.824C38.4525 118.013 39.0179 117.389 39.7432 116.952C40.4792 116.504 41.3379 116.28 42.3192 116.28C43.3432 116.28 44.1965 116.493 44.8792 116.92C45.5725 117.336 46.0845 117.944 46.4152 118.744L45.1512 119.336C44.9165 118.728 44.5752 118.269 44.1272 117.96C43.6899 117.64 43.1192 117.48 42.4152 117.48C41.7005 117.48 41.0712 117.651 40.5272 117.992C39.9832 118.323 39.5565 118.803 39.2472 119.432C38.9485 120.061 38.7992 120.824 38.7992 121.72C38.7992 123.043 39.1139 124.083 39.7432 124.84C40.3832 125.587 41.2525 125.96 42.3512 125.96C43.0552 125.96 43.6685 125.784 44.1912 125.432C44.7139 125.069 45.0925 124.531 45.3272 123.816L46.6072 124.296ZM52.1359 118.84C52.8933 118.84 53.5599 119.005 54.1359 119.336C54.7226 119.667 55.1813 120.147 55.5119 120.776C55.8426 121.395 56.0079 122.136 56.0079 123C56.0079 123.864 55.8426 124.611 55.5119 125.24C55.1813 125.859 54.7226 126.333 54.1359 126.664C53.5599 126.995 52.8933 127.16 52.1359 127.16C51.3893 127.16 50.7226 126.995 50.1359 126.664C49.5493 126.333 49.0906 125.859 48.7599 125.24C48.4293 124.611 48.2639 123.864 48.2639 123C48.2639 122.136 48.4293 121.395 48.7599 120.776C49.0906 120.147 49.5493 119.667 50.1359 119.336C50.7226 119.005 51.3893 118.84 52.1359 118.84ZM52.1359 119.944C51.3253 119.944 50.6906 120.216 50.2319 120.76C49.7733 121.304 49.5439 122.051 49.5439 123C49.5439 123.949 49.7733 124.696 50.2319 125.24C50.6906 125.784 51.3253 126.056 52.1359 126.056C52.9466 126.056 53.5813 125.784 54.0399 125.24C54.4986 124.696 54.7279 123.949 54.7279 123C54.7279 122.051 54.4986 121.304 54.0399 120.76C53.5813 120.216 52.9466 119.944 52.1359 119.944ZM59.6337 115.32V124.968C59.6337 125.373 59.7084 125.656 59.8577 125.816C60.007 125.965 60.247 126.04 60.5777 126.04C60.791 126.04 60.967 126.024 61.1057 125.992C61.2444 125.96 61.431 125.901 61.6657 125.816L61.4577 126.936C61.1057 127.085 60.711 127.16 60.2737 127.16C58.9937 127.16 58.3537 126.445 58.3537 125.016V115.32H59.6337ZM64.5243 115.32V124.968C64.5243 125.373 64.599 125.656 64.7483 125.816C64.8976 125.965 65.1376 126.04 65.4683 126.04C65.6816 126.04 65.8576 126.024 65.9963 125.992C66.135 125.96 66.3216 125.901 66.5563 125.816L66.3483 126.936C65.9963 127.085 65.6016 127.16 65.1643 127.16C63.8843 127.16 63.2443 126.445 63.2443 125.016V115.32H64.5243ZM72.8709 121.832C72.8709 121.235 72.7109 120.776 72.3909 120.456C72.0709 120.125 71.6176 119.96 71.0309 119.96C70.4763 119.96 70.0069 120.083 69.6229 120.328C69.2389 120.563 68.9563 120.947 68.7749 121.48L67.7349 120.84C67.9483 120.243 68.3429 119.763 68.9189 119.4C69.4949 119.027 70.2096 118.84 71.0629 118.84C71.6389 118.84 72.1616 118.941 72.6309 119.144C73.1003 119.336 73.4683 119.635 73.7349 120.04C74.0123 120.435 74.1509 120.947 74.1509 121.576V125.448C74.1509 125.832 74.3536 126.024 74.7589 126.024C74.9616 126.024 75.1589 125.997 75.3509 125.944L75.2869 126.952C75.0736 127.059 74.7963 127.112 74.4549 127.112C74.0603 127.112 73.7189 127.016 73.4309 126.824C73.1536 126.632 72.9723 126.339 72.8869 125.944C72.6096 126.36 72.2309 126.669 71.7509 126.872C71.2709 127.064 70.7963 127.16 70.3269 127.16C69.8576 127.16 69.4203 127.08 69.0149 126.92C68.6096 126.76 68.2843 126.52 68.0389 126.2C67.8043 125.869 67.6869 125.464 67.6869 124.984C67.6869 124.387 67.8843 123.896 68.2789 123.512C68.6843 123.117 69.2443 122.851 69.9589 122.712L72.8709 122.136V121.832ZM68.9989 124.92C68.9989 125.251 69.1269 125.523 69.3829 125.736C69.6496 125.939 70.0229 126.04 70.5029 126.04C70.9189 126.04 71.3029 125.971 71.6549 125.832C72.0176 125.683 72.3109 125.464 72.5349 125.176C72.7589 124.877 72.8709 124.499 72.8709 124.04V123.192L70.5509 123.672C70.0283 123.779 69.6389 123.928 69.3829 124.12C69.1269 124.312 68.9989 124.579 68.9989 124.92ZM81.1814 127.16C80.5734 127.16 80.0294 127.016 79.5494 126.728C79.0694 126.44 78.7068 126.061 78.4614 125.592L78.3814 127H77.2614V115.32H78.5414V120.248C78.7974 119.832 79.1548 119.496 79.6134 119.24C80.0828 118.973 80.6108 118.84 81.1974 118.84C81.8588 118.84 82.4668 119.005 83.0214 119.336C83.5761 119.667 84.0188 120.141 84.3494 120.76C84.6801 121.379 84.8454 122.125 84.8454 123C84.8454 123.864 84.6748 124.611 84.3334 125.24C84.0028 125.859 83.5601 126.333 83.0054 126.664C82.4508 126.995 81.8428 127.16 81.1814 127.16ZM81.0534 126.04C81.8428 126.04 82.4561 125.763 82.8934 125.208C83.3414 124.653 83.5654 123.917 83.5654 123C83.5654 122.083 83.3468 121.347 82.9094 120.792C82.4721 120.237 81.8588 119.96 81.0694 119.96C80.3228 119.96 79.7148 120.243 79.2454 120.808C78.7761 121.373 78.5414 122.115 78.5414 123.032C78.5414 123.949 78.7708 124.68 79.2294 125.224C79.6988 125.768 80.3068 126.04 81.0534 126.04ZM90.6047 118.84C91.362 118.84 92.0287 119.005 92.6047 119.336C93.1914 119.667 93.65 120.147 93.9807 120.776C94.3114 121.395 94.4767 122.136 94.4767 123C94.4767 123.864 94.3114 124.611 93.9807 125.24C93.65 125.859 93.1914 126.333 92.6047 126.664C92.0287 126.995 91.362 127.16 90.6047 127.16C89.858 127.16 89.1914 126.995 88.6047 126.664C88.018 126.333 87.5594 125.859 87.2287 125.24C86.898 124.611 86.7327 123.864 86.7327 123C86.7327 122.136 86.898 121.395 87.2287 120.776C87.5594 120.147 88.018 119.667 88.6047 119.336C89.1914 119.005 89.858 118.84 90.6047 118.84ZM90.6047 119.944C89.794 119.944 89.1594 120.216 88.7007 120.76C88.242 121.304 88.0127 122.051 88.0127 123C88.0127 123.949 88.242 124.696 88.7007 125.24C89.1594 125.784 89.794 126.056 90.6047 126.056C91.4154 126.056 92.05 125.784 92.5087 125.24C92.9674 124.696 93.1967 123.949 93.1967 123C93.1967 122.051 92.9674 121.304 92.5087 120.76C92.05 120.216 91.4154 119.944 90.6047 119.944ZM96.8864 127V119H97.9264L98.1024 120.312C98.5504 119.331 99.4038 118.84 100.662 118.84C100.801 118.84 100.95 118.851 101.11 118.872C101.281 118.893 101.425 118.936 101.542 119L101.318 120.168C101.201 120.125 101.073 120.093 100.934 120.072C100.796 120.051 100.598 120.04 100.342 120.04C100.012 120.04 99.6758 120.136 99.3344 120.328C99.0038 120.52 98.7264 120.813 98.5024 121.208C98.2784 121.592 98.1664 122.083 98.1664 122.68V127H96.8864ZM107.871 121.832C107.871 121.235 107.711 120.776 107.391 120.456C107.071 120.125 106.618 119.96 106.031 119.96C105.476 119.96 105.007 120.083 104.623 120.328C104.239 120.563 103.956 120.947 103.775 121.48L102.735 120.84C102.948 120.243 103.343 119.763 103.919 119.4C104.495 119.027 105.21 118.84 106.063 118.84C106.639 118.84 107.162 118.941 107.631 119.144C108.1 119.336 108.468 119.635 108.735 120.04C109.012 120.435 109.151 120.947 109.151 121.576V125.448C109.151 125.832 109.354 126.024 109.759 126.024C109.962 126.024 110.159 125.997 110.351 125.944L110.287 126.952C110.074 127.059 109.796 127.112 109.455 127.112C109.06 127.112 108.719 127.016 108.431 126.824C108.154 126.632 107.972 126.339 107.887 125.944C107.61 126.36 107.231 126.669 106.751 126.872C106.271 127.064 105.796 127.16 105.327 127.16C104.858 127.16 104.42 127.08 104.015 126.92C103.61 126.76 103.284 126.52 103.039 126.2C102.804 125.869 102.687 125.464 102.687 124.984C102.687 124.387 102.884 123.896 103.279 123.512C103.684 123.117 104.244 122.851 104.959 122.712L107.871 122.136V121.832ZM103.999 124.92C103.999 125.251 104.127 125.523 104.383 125.736C104.65 125.939 105.023 126.04 105.503 126.04C105.919 126.04 106.303 125.971 106.655 125.832C107.018 125.683 107.311 125.464 107.535 125.176C107.759 124.877 107.871 124.499 107.871 124.04V123.192L105.551 123.672C105.028 123.779 104.639 123.928 104.383 124.12C104.127 124.312 103.999 124.579 103.999 124.92ZM116.749 119V120.104H113.837V124.792C113.837 125.187 113.949 125.48 114.173 125.672C114.397 125.864 114.685 125.96 115.037 125.96C115.346 125.96 115.613 125.907 115.837 125.8C116.061 125.693 116.264 125.549 116.445 125.368L116.893 126.44C116.648 126.664 116.354 126.84 116.013 126.968C115.682 127.096 115.298 127.16 114.861 127.16C114.456 127.16 114.077 127.091 113.725 126.952C113.373 126.803 113.09 126.573 112.877 126.264C112.674 125.944 112.568 125.528 112.557 125.016V120.104H110.957V119H112.557V117.08L113.837 116.728V119H116.749ZM121.996 127.16C121.239 127.16 120.561 126.995 119.964 126.664C119.377 126.333 118.919 125.859 118.588 125.24C118.257 124.611 118.092 123.864 118.092 123C118.092 122.136 118.257 121.395 118.588 120.776C118.919 120.147 119.372 119.667 119.948 119.336C120.524 119.005 121.18 118.84 121.916 118.84C122.663 118.84 123.297 119 123.82 119.32C124.353 119.64 124.759 120.077 125.036 120.632C125.313 121.176 125.452 121.789 125.452 122.472C125.452 122.653 125.447 122.819 125.436 122.968C125.425 123.117 125.409 123.251 125.388 123.368H119.356C119.42 124.211 119.681 124.867 120.14 125.336C120.599 125.805 121.207 126.04 121.964 126.04C122.551 126.04 123.025 125.928 123.388 125.704C123.761 125.48 124.06 125.176 124.284 124.792L125.292 125.384C124.993 125.928 124.561 126.36 123.996 126.68C123.441 127 122.775 127.16 121.996 127.16ZM121.884 119.96C121.212 119.96 120.657 120.163 120.22 120.568C119.793 120.963 119.521 121.517 119.404 122.232H124.172C124.14 121.507 123.916 120.947 123.5 120.552C123.084 120.157 122.545 119.96 121.884 119.96ZM143.012 119H144.436L141.652 127H140.372L138.116 120.632L135.988 127H134.708L131.924 119H133.348L135.364 125.512L137.54 119H138.82L140.996 125.512L143.012 119ZM146.995 117.464C146.707 117.464 146.473 117.379 146.291 117.208C146.121 117.027 146.035 116.792 146.035 116.504C146.035 116.216 146.121 115.987 146.291 115.816C146.473 115.635 146.707 115.544 146.995 115.544C147.283 115.544 147.513 115.635 147.683 115.816C147.865 115.987 147.955 116.216 147.955 116.504C147.955 116.792 147.865 117.027 147.683 117.208C147.513 117.379 147.283 117.464 146.995 117.464ZM147.635 119V127H146.355V119H147.635ZM155.405 119V120.104H152.493V124.792C152.493 125.187 152.605 125.48 152.829 125.672C153.053 125.864 153.341 125.96 153.693 125.96C154.003 125.96 154.269 125.907 154.493 125.8C154.717 125.693 154.92 125.549 155.101 125.368L155.549 126.44C155.304 126.664 155.011 126.84 154.669 126.968C154.339 127.096 153.955 127.16 153.517 127.16C153.112 127.16 152.733 127.091 152.381 126.952C152.029 126.803 151.747 126.573 151.533 126.264C151.331 125.944 151.224 125.528 151.213 125.016V120.104H149.613V119H151.213V117.08L152.493 116.728V119H155.405ZM157.308 127V115.32H158.588V120.2C158.866 119.72 159.234 119.373 159.692 119.16C160.151 118.947 160.652 118.84 161.196 118.84C161.772 118.84 162.295 118.952 162.764 119.176C163.234 119.389 163.607 119.72 163.884 120.168C164.172 120.616 164.316 121.187 164.316 121.88V127H163.036V122.328C163.036 121.443 162.844 120.829 162.46 120.488C162.087 120.136 161.623 119.96 161.068 119.96C160.684 119.96 160.3 120.051 159.916 120.232C159.532 120.413 159.212 120.712 158.956 121.128C158.711 121.533 158.588 122.077 158.588 122.76V127H157.308ZM175.98 118.84C176.737 118.84 177.404 119.005 177.98 119.336C178.566 119.667 179.025 120.147 179.356 120.776C179.686 121.395 179.852 122.136 179.852 123C179.852 123.864 179.686 124.611 179.356 125.24C179.025 125.859 178.566 126.333 177.98 126.664C177.404 126.995 176.737 127.16 175.98 127.16C175.233 127.16 174.566 126.995 173.98 126.664C173.393 126.333 172.934 125.859 172.604 125.24C172.273 124.611 172.108 123.864 172.108 123C172.108 122.136 172.273 121.395 172.604 120.776C172.934 120.147 173.393 119.667 173.98 119.336C174.566 119.005 175.233 118.84 175.98 118.84ZM175.98 119.944C175.169 119.944 174.534 120.216 174.076 120.76C173.617 121.304 173.388 122.051 173.388 123C173.388 123.949 173.617 124.696 174.076 125.24C174.534 125.784 175.169 126.056 175.98 126.056C176.79 126.056 177.425 125.784 177.884 125.24C178.342 124.696 178.572 123.949 178.572 123C178.572 122.051 178.342 121.304 177.884 120.76C177.425 120.216 176.79 119.944 175.98 119.944ZM186.921 119V120.104H184.009V124.792C184.009 125.187 184.121 125.48 184.345 125.672C184.569 125.864 184.857 125.96 185.209 125.96C185.518 125.96 185.785 125.907 186.009 125.8C186.233 125.693 186.435 125.549 186.617 125.368L187.065 126.44C186.819 126.664 186.526 126.84 186.185 126.968C185.854 127.096 185.47 127.16 185.033 127.16C184.627 127.16 184.249 127.091 183.897 126.952C183.545 126.803 183.262 126.573 183.049 126.264C182.846 125.944 182.739 125.528 182.729 125.016V120.104H181.129V119H182.729V117.08L184.009 116.728V119H186.921ZM188.824 127V115.32H190.104V120.2C190.381 119.72 190.749 119.373 191.208 119.16C191.667 118.947 192.168 118.84 192.712 118.84C193.288 118.84 193.811 118.952 194.28 119.176C194.749 119.389 195.123 119.72 195.4 120.168C195.688 120.616 195.832 121.187 195.832 121.88V127H194.552V122.328C194.552 121.443 194.36 120.829 193.976 120.488C193.603 120.136 193.139 119.96 192.584 119.96C192.2 119.96 191.816 120.051 191.432 120.232C191.048 120.413 190.728 120.712 190.472 121.128C190.227 121.533 190.104 122.077 190.104 122.76V127H188.824ZM202.074 127.16C201.317 127.16 200.64 126.995 200.042 126.664C199.456 126.333 198.997 125.859 198.666 125.24C198.336 124.611 198.17 123.864 198.17 123C198.17 122.136 198.336 121.395 198.666 120.776C198.997 120.147 199.45 119.667 200.026 119.336C200.602 119.005 201.258 118.84 201.994 118.84C202.741 118.84 203.376 119 203.898 119.32C204.432 119.64 204.837 120.077 205.114 120.632C205.392 121.176 205.53 121.789 205.53 122.472C205.53 122.653 205.525 122.819 205.514 122.968C205.504 123.117 205.488 123.251 205.466 123.368H199.434C199.498 124.211 199.76 124.867 200.218 125.336C200.677 125.805 201.285 126.04 202.042 126.04C202.629 126.04 203.104 125.928 203.466 125.704C203.84 125.48 204.138 125.176 204.362 124.792L205.37 125.384C205.072 125.928 204.64 126.36 204.074 126.68C203.52 127 202.853 127.16 202.074 127.16ZM201.962 119.96C201.29 119.96 200.736 120.163 200.298 120.568C199.872 120.963 199.6 121.517 199.482 122.232H204.25C204.218 121.507 203.994 120.947 203.578 120.552C203.162 120.157 202.624 119.96 201.962 119.96ZM207.965 127V119H209.005L209.181 120.312C209.629 119.331 210.482 118.84 211.741 118.84C211.879 118.84 212.029 118.851 212.189 118.872C212.359 118.893 212.503 118.936 212.621 119L212.397 120.168C212.279 120.125 212.151 120.093 212.013 120.072C211.874 120.051 211.677 120.04 211.421 120.04C211.09 120.04 210.754 120.136 210.413 120.328C210.082 120.52 209.805 120.813 209.581 121.208C209.357 121.592 209.245 122.083 209.245 122.68V127H207.965ZM20.6122 140.28C21.5402 140.28 22.3402 140.472 23.0122 140.856C23.6842 141.229 24.2442 141.784 24.6922 142.52L23.6202 143.352C23.2255 142.669 22.7775 142.189 22.2762 141.912C21.7855 141.624 21.1882 141.48 20.4842 141.48C19.6309 141.48 19.0069 141.651 18.6122 141.992C18.2175 142.333 18.0202 142.749 18.0202 143.24C18.0202 143.613 18.1375 143.944 18.3722 144.232C18.6069 144.509 19.0762 144.728 19.7802 144.888L22.0682 145.4C23.0815 145.624 23.7855 145.965 24.1802 146.424C24.5855 146.872 24.7882 147.432 24.7882 148.104C24.7882 148.701 24.6175 149.235 24.2762 149.704C23.9455 150.163 23.4762 150.52 22.8682 150.776C22.2602 151.032 21.5455 151.16 20.7242 151.16C19.5829 151.16 18.6389 150.936 17.8922 150.488C17.1455 150.029 16.5749 149.475 16.1802 148.824L17.3002 147.912C17.6095 148.52 18.0469 149.016 18.6122 149.4C19.1882 149.773 19.9189 149.96 20.8042 149.96C21.6255 149.96 22.2709 149.811 22.7402 149.512C23.2202 149.213 23.4602 148.781 23.4602 148.216C23.4602 147.875 23.3482 147.571 23.1242 147.304C22.9002 147.027 22.4789 146.819 21.8602 146.68L19.3802 146.12C18.3989 145.907 17.7002 145.56 17.2842 145.08C16.8789 144.6 16.6762 144.045 16.6762 143.416C16.6762 142.851 16.8309 142.333 17.1402 141.864C17.4602 141.384 17.9135 141 18.5002 140.712C19.0975 140.424 19.8015 140.28 20.6122 140.28ZM27.1521 151V143H28.2721L28.3521 144.248C28.6401 143.757 29.0134 143.4 29.4721 143.176C29.9414 142.952 30.4214 142.84 30.9121 142.84C31.4774 142.84 32.0107 142.968 32.5121 143.224C33.0134 143.48 33.3974 143.875 33.6641 144.408C33.8347 144.045 34.0747 143.752 34.3841 143.528C34.6934 143.293 35.0294 143.123 35.3921 143.016C35.7654 142.899 36.1174 142.84 36.4481 142.84C36.9601 142.84 37.4454 142.947 37.9041 143.16C38.3734 143.373 38.7574 143.704 39.0561 144.152C39.3547 144.6 39.5041 145.176 39.5041 145.88V151H38.2241V146.008C38.2241 145.283 38.0427 144.76 37.6801 144.44C37.3174 144.12 36.8694 143.96 36.3361 143.96C35.9201 143.96 35.5307 144.061 35.1681 144.264C34.8054 144.467 34.5121 144.765 34.2881 145.16C34.0747 145.555 33.9681 146.04 33.9681 146.616V151H32.6881V146.008C32.6881 145.283 32.5067 144.76 32.1441 144.44C31.7814 144.12 31.3334 143.96 30.8001 143.96C30.4481 143.96 30.0854 144.056 29.7121 144.248C29.3494 144.429 29.0454 144.723 28.8001 145.128C28.5547 145.533 28.4321 146.067 28.4321 146.728V151H27.1521ZM47.0741 145.832C47.0741 145.235 46.9141 144.776 46.5941 144.456C46.2741 144.125 45.8207 143.96 45.2341 143.96C44.6794 143.96 44.2101 144.083 43.8261 144.328C43.4421 144.563 43.1594 144.947 42.9781 145.48L41.9381 144.84C42.1514 144.243 42.5461 143.763 43.1221 143.4C43.6981 143.027 44.4127 142.84 45.2661 142.84C45.8421 142.84 46.3647 142.941 46.8341 143.144C47.3034 143.336 47.6714 143.635 47.9381 144.04C48.2154 144.435 48.3541 144.947 48.3541 145.576V149.448C48.3541 149.832 48.5567 150.024 48.9621 150.024C49.1647 150.024 49.3621 149.997 49.5541 149.944L49.4901 150.952C49.2767 151.059 48.9994 151.112 48.6581 151.112C48.2634 151.112 47.9221 151.016 47.6341 150.824C47.3567 150.632 47.1754 150.339 47.0901 149.944C46.8127 150.36 46.4341 150.669 45.9541 150.872C45.4741 151.064 44.9994 151.16 44.5301 151.16C44.0607 151.16 43.6234 151.08 43.2181 150.92C42.8127 150.76 42.4874 150.52 42.2421 150.2C42.0074 149.869 41.8901 149.464 41.8901 148.984C41.8901 148.387 42.0874 147.896 42.4821 147.512C42.8874 147.117 43.4474 146.851 44.1621 146.712L47.0741 146.136V145.832ZM43.2021 148.92C43.2021 149.251 43.3301 149.523 43.5861 149.736C43.8527 149.939 44.2261 150.04 44.7061 150.04C45.1221 150.04 45.5061 149.971 45.8581 149.832C46.2207 149.683 46.5141 149.464 46.7381 149.176C46.9621 148.877 47.0741 148.499 47.0741 148.04V147.192L44.7541 147.672C44.2314 147.779 43.8421 147.928 43.5861 148.12C43.3301 148.312 43.2021 148.579 43.2021 148.92ZM51.4646 151V143H52.5046L52.6806 144.312C53.1286 143.331 53.9819 142.84 55.2406 142.84C55.3792 142.84 55.5286 142.851 55.6886 142.872C55.8592 142.893 56.0032 142.936 56.1206 143L55.8966 144.168C55.7792 144.125 55.6512 144.093 55.5126 144.072C55.3739 144.051 55.1766 144.04 54.9206 144.04C54.5899 144.04 54.2539 144.136 53.9126 144.328C53.5819 144.52 53.3046 144.813 53.0806 145.208C52.8566 145.592 52.7446 146.083 52.7446 146.68V151H51.4646ZM62.3114 143V144.104H59.3994V148.792C59.3994 149.187 59.5114 149.48 59.7354 149.672C59.9594 149.864 60.2474 149.96 60.5994 149.96C60.9088 149.96 61.1754 149.907 61.3994 149.8C61.6234 149.693 61.8261 149.549 62.0074 149.368L62.4554 150.44C62.2101 150.664 61.9168 150.84 61.5754 150.968C61.2448 151.096 60.8608 151.16 60.4234 151.16C60.0181 151.16 59.6394 151.091 59.2874 150.952C58.9354 150.803 58.6528 150.573 58.4394 150.264C58.2368 149.944 58.1301 149.528 58.1194 149.016V144.104H56.5194V143H58.1194V141.08L59.3994 140.728V143H62.3114ZM64.8546 141.464C64.5666 141.464 64.3319 141.379 64.1506 141.208C63.9799 141.027 63.8946 140.792 63.8946 140.504C63.8946 140.216 63.9799 139.987 64.1506 139.816C64.3319 139.635 64.5666 139.544 64.8546 139.544C65.1426 139.544 65.3719 139.635 65.5426 139.816C65.7239 139.987 65.8146 140.216 65.8146 140.504C65.8146 140.792 65.7239 141.027 65.5426 141.208C65.3719 141.379 65.1426 141.464 64.8546 141.464ZM65.4946 143V151H64.2146V143H65.4946ZM71.3446 151.16C70.5659 151.16 69.8459 150.995 69.1846 150.664C68.5339 150.333 68.0326 149.864 67.6806 149.256L68.7686 148.472C69.0032 148.963 69.3446 149.347 69.7926 149.624C70.2512 149.901 70.8006 150.04 71.4406 150.04C72.0059 150.04 72.4486 149.933 72.7686 149.72C73.0886 149.496 73.2486 149.208 73.2486 148.856C73.2486 148.632 73.1739 148.429 73.0246 148.248C72.8859 148.056 72.6139 147.917 72.2086 147.832L70.2886 147.432C69.5099 147.272 68.9499 147.005 68.6086 146.632C68.2779 146.259 68.1126 145.795 68.1126 145.24C68.1126 144.803 68.2352 144.403 68.4806 144.04C68.7366 143.677 69.0939 143.389 69.5526 143.176C70.0219 142.952 70.5712 142.84 71.2006 142.84C71.9899 142.84 72.6566 142.995 73.2006 143.304C73.7446 143.613 74.1499 144.051 74.4166 144.616L73.3446 145.32C73.1632 144.851 72.8699 144.509 72.4646 144.296C72.0592 144.072 71.6379 143.96 71.2006 143.96C70.6246 143.96 70.1766 144.077 69.8566 144.312C69.5366 144.547 69.3766 144.84 69.3766 145.192C69.3766 145.427 69.4566 145.645 69.6166 145.848C69.7766 146.04 70.0752 146.179 70.5126 146.264L72.5126 146.68C73.2592 146.829 73.7819 147.075 74.0806 147.416C74.3792 147.757 74.5286 148.173 74.5286 148.664C74.5286 149.421 74.2352 150.029 73.6486 150.488C73.0619 150.936 72.2939 151.16 71.3446 151.16ZM81.7021 143V144.104H78.7901V148.792C78.7901 149.187 78.9021 149.48 79.1261 149.672C79.3501 149.864 79.6381 149.96 79.9901 149.96C80.2994 149.96 80.5661 149.907 80.7901 149.8C81.0141 149.693 81.2167 149.549 81.3981 149.368L81.8461 150.44C81.6007 150.664 81.3074 150.84 80.9661 150.968C80.6354 151.096 80.2514 151.16 79.8141 151.16C79.4087 151.16 79.0301 151.091 78.6781 150.952C78.3261 150.803 78.0434 150.573 77.8301 150.264C77.6274 149.944 77.5207 149.528 77.5101 149.016V144.104H75.9101V143H77.5101V141.08L78.7901 140.728V143H81.7021ZM86.4852 151.16C85.7065 151.16 84.9865 150.995 84.3252 150.664C83.6745 150.333 83.1732 149.864 82.8212 149.256L83.9092 148.472C84.1439 148.963 84.4852 149.347 84.9332 149.624C85.3919 149.901 85.9412 150.04 86.5812 150.04C87.1465 150.04 87.5892 149.933 87.9092 149.72C88.2292 149.496 88.3892 149.208 88.3892 148.856C88.3892 148.632 88.3145 148.429 88.1652 148.248C88.0265 148.056 87.7545 147.917 87.3492 147.832L85.4292 147.432C84.6505 147.272 84.0905 147.005 83.7492 146.632C83.4185 146.259 83.2532 145.795 83.2532 145.24C83.2532 144.803 83.3759 144.403 83.6212 144.04C83.8772 143.677 84.2345 143.389 84.6932 143.176C85.1625 142.952 85.7119 142.84 86.3412 142.84C87.1305 142.84 87.7972 142.995 88.3412 143.304C88.8852 143.613 89.2905 144.051 89.5572 144.616L88.4852 145.32C88.3039 144.851 88.0105 144.509 87.6052 144.296C87.1999 144.072 86.7785 143.96 86.3412 143.96C85.7652 143.96 85.3172 144.077 84.9972 144.312C84.6772 144.547 84.5172 144.84 84.5172 145.192C84.5172 145.427 84.5972 145.645 84.7572 145.848C84.9172 146.04 85.2159 146.179 85.6532 146.264L87.6532 146.68C88.3999 146.829 88.9225 147.075 89.2212 147.416C89.5199 147.757 89.6692 148.173 89.6692 148.664C89.6692 149.421 89.3759 150.029 88.7892 150.488C88.2025 150.936 87.4345 151.16 86.4852 151.16ZM97.4958 151V143H98.6158L98.6958 144.248C98.9838 143.757 99.3571 143.4 99.8158 143.176C100.285 142.952 100.765 142.84 101.256 142.84C101.821 142.84 102.354 142.968 102.856 143.224C103.357 143.48 103.741 143.875 104.008 144.408C104.178 144.045 104.418 143.752 104.728 143.528C105.037 143.293 105.373 143.123 105.736 143.016C106.109 142.899 106.461 142.84 106.792 142.84C107.304 142.84 107.789 142.947 108.248 143.16C108.717 143.373 109.101 143.704 109.4 144.152C109.698 144.6 109.848 145.176 109.848 145.88V151H108.568V146.008C108.568 145.283 108.386 144.76 108.024 144.44C107.661 144.12 107.213 143.96 106.68 143.96C106.264 143.96 105.874 144.061 105.512 144.264C105.149 144.467 104.856 144.765 104.632 145.16C104.418 145.555 104.312 146.04 104.312 146.616V151H103.032V146.008C103.032 145.283 102.85 144.76 102.488 144.44C102.125 144.12 101.677 143.96 101.144 143.96C100.792 143.96 100.429 144.056 100.056 144.248C99.6931 144.429 99.3891 144.723 99.1438 145.128C98.8985 145.533 98.7758 146.067 98.7758 146.728V151H97.4958ZM116.09 151.16C115.332 151.16 114.655 150.995 114.058 150.664C113.471 150.333 113.012 149.859 112.682 149.24C112.351 148.611 112.186 147.864 112.186 147C112.186 146.136 112.351 145.395 112.682 144.776C113.012 144.147 113.466 143.667 114.042 143.336C114.618 143.005 115.274 142.84 116.01 142.84C116.756 142.84 117.391 143 117.914 143.32C118.447 143.64 118.852 144.077 119.13 144.632C119.407 145.176 119.546 145.789 119.546 146.472C119.546 146.653 119.54 146.819 119.53 146.968C119.519 147.117 119.503 147.251 119.482 147.368H113.45C113.514 148.211 113.775 148.867 114.234 149.336C114.692 149.805 115.3 150.04 116.058 150.04C116.644 150.04 117.119 149.928 117.482 149.704C117.855 149.48 118.154 149.176 118.378 148.792L119.386 149.384C119.087 149.928 118.655 150.36 118.09 150.68C117.535 151 116.868 151.16 116.09 151.16ZM115.978 143.96C115.306 143.96 114.751 144.163 114.314 144.568C113.887 144.963 113.615 145.517 113.498 146.232H118.266C118.234 145.507 118.01 144.947 117.594 144.552C117.178 144.157 116.639 143.96 115.978 143.96ZM121.98 151V143H123.1L123.18 144.248C123.468 143.757 123.842 143.4 124.3 143.176C124.77 142.952 125.25 142.84 125.74 142.84C126.306 142.84 126.839 142.968 127.34 143.224C127.842 143.48 128.226 143.875 128.492 144.408C128.663 144.045 128.903 143.752 129.212 143.528C129.522 143.293 129.858 143.123 130.22 143.016C130.594 142.899 130.946 142.84 131.276 142.84C131.788 142.84 132.274 142.947 132.732 143.16C133.202 143.373 133.586 143.704 133.884 144.152C134.183 144.6 134.332 145.176 134.332 145.88V151H133.052V146.008C133.052 145.283 132.871 144.76 132.508 144.44C132.146 144.12 131.698 143.96 131.164 143.96C130.748 143.96 130.359 144.061 129.996 144.264C129.634 144.467 129.34 144.765 129.116 145.16C128.903 145.555 128.796 146.04 128.796 146.616V151H127.516V146.008C127.516 145.283 127.335 144.76 126.972 144.44C126.61 144.12 126.162 143.96 125.628 143.96C125.276 143.96 124.914 144.056 124.54 144.248C124.178 144.429 123.874 144.723 123.628 145.128C123.383 145.533 123.26 146.067 123.26 146.728V151H121.98ZM141.15 151.16C140.542 151.16 139.998 151.016 139.518 150.728C139.038 150.44 138.676 150.061 138.43 149.592L138.35 151H137.23V139.32H138.51V144.248C138.766 143.832 139.124 143.496 139.582 143.24C140.052 142.973 140.58 142.84 141.166 142.84C141.828 142.84 142.436 143.005 142.99 143.336C143.545 143.667 143.988 144.141 144.318 144.76C144.649 145.379 144.814 146.125 144.814 147C144.814 147.864 144.644 148.611 144.302 149.24C143.972 149.859 143.529 150.333 142.974 150.664C142.42 150.995 141.812 151.16 141.15 151.16ZM141.022 150.04C141.812 150.04 142.425 149.763 142.862 149.208C143.31 148.653 143.534 147.917 143.534 147C143.534 146.083 143.316 145.347 142.878 144.792C142.441 144.237 141.828 143.96 141.038 143.96C140.292 143.96 139.684 144.243 139.214 144.808C138.745 145.373 138.51 146.115 138.51 147.032C138.51 147.949 138.74 148.68 139.198 149.224C139.668 149.768 140.276 150.04 141.022 150.04ZM150.605 151.16C149.848 151.16 149.171 150.995 148.573 150.664C147.987 150.333 147.528 149.859 147.197 149.24C146.867 148.611 146.701 147.864 146.701 147C146.701 146.136 146.867 145.395 147.197 144.776C147.528 144.147 147.981 143.667 148.557 143.336C149.133 143.005 149.789 142.84 150.525 142.84C151.272 142.84 151.907 143 152.429 143.32C152.963 143.64 153.368 144.077 153.645 144.632C153.923 145.176 154.061 145.789 154.061 146.472C154.061 146.653 154.056 146.819 154.045 146.968C154.035 147.117 154.019 147.251 153.997 147.368H147.965C148.029 148.211 148.291 148.867 148.749 149.336C149.208 149.805 149.816 150.04 150.573 150.04C151.16 150.04 151.635 149.928 151.997 149.704C152.371 149.48 152.669 149.176 152.893 148.792L153.901 149.384C153.603 149.928 153.171 150.36 152.605 150.68C152.051 151 151.384 151.16 150.605 151.16ZM150.493 143.96C149.821 143.96 149.267 144.163 148.829 144.568C148.403 144.963 148.131 145.517 148.013 146.232H152.781C152.749 145.507 152.525 144.947 152.109 144.552C151.693 144.157 151.155 143.96 150.493 143.96ZM156.496 151V143H157.536L157.712 144.312C158.16 143.331 159.013 142.84 160.272 142.84C160.41 142.84 160.56 142.851 160.72 142.872C160.89 142.893 161.034 142.936 161.152 143L160.928 144.168C160.81 144.125 160.682 144.093 160.544 144.072C160.405 144.051 160.208 144.04 159.952 144.04C159.621 144.04 159.285 144.136 158.944 144.328C158.613 144.52 158.336 144.813 158.112 145.208C157.888 145.592 157.776 146.083 157.776 146.68V151H156.496ZM165.563 151.16C164.785 151.16 164.065 150.995 163.403 150.664C162.753 150.333 162.251 149.864 161.899 149.256L162.987 148.472C163.222 148.963 163.563 149.347 164.011 149.624C164.47 149.901 165.019 150.04 165.659 150.04C166.225 150.04 166.667 149.933 166.987 149.72C167.307 149.496 167.467 149.208 167.467 148.856C167.467 148.632 167.393 148.429 167.243 148.248C167.105 148.056 166.833 147.917 166.427 147.832L164.507 147.432C163.729 147.272 163.169 147.005 162.827 146.632C162.497 146.259 162.331 145.795 162.331 145.24C162.331 144.803 162.454 144.403 162.699 144.04C162.955 143.677 163.313 143.389 163.771 143.176C164.241 142.952 164.79 142.84 165.419 142.84C166.209 142.84 166.875 142.995 167.419 143.304C167.963 143.613 168.369 144.051 168.635 144.616L167.563 145.32C167.382 144.851 167.089 144.509 166.683 144.296C166.278 144.072 165.857 143.96 165.419 143.96C164.843 143.96 164.395 144.077 164.075 144.312C163.755 144.547 163.595 144.84 163.595 145.192C163.595 145.427 163.675 145.645 163.835 145.848C163.995 146.04 164.294 146.179 164.731 146.264L166.731 146.68C167.478 146.829 168.001 147.075 168.299 147.416C168.598 147.757 168.747 148.173 168.747 148.664C168.747 149.421 168.454 150.029 167.867 150.488C167.281 150.936 166.513 151.16 165.563 151.16ZM179.886 142.84C180.643 142.84 181.31 143.005 181.886 143.336C182.473 143.667 182.931 144.147 183.262 144.776C183.593 145.395 183.758 146.136 183.758 147C183.758 147.864 183.593 148.611 183.262 149.24C182.931 149.859 182.473 150.333 181.886 150.664C181.31 150.995 180.643 151.16 179.886 151.16C179.139 151.16 178.473 150.995 177.886 150.664C177.299 150.333 176.841 149.859 176.51 149.24C176.179 148.611 176.014 147.864 176.014 147C176.014 146.136 176.179 145.395 176.51 144.776C176.841 144.147 177.299 143.667 177.886 143.336C178.473 143.005 179.139 142.84 179.886 142.84ZM179.886 143.944C179.075 143.944 178.441 144.216 177.982 144.76C177.523 145.304 177.294 146.051 177.294 147C177.294 147.949 177.523 148.696 177.982 149.24C178.441 149.784 179.075 150.056 179.886 150.056C180.697 150.056 181.331 149.784 181.79 149.24C182.249 148.696 182.478 147.949 182.478 147C182.478 146.051 182.249 145.304 181.79 144.76C181.331 144.216 180.697 143.944 179.886 143.944ZM186.168 151V143H187.288L187.368 144.248C187.645 143.747 188.024 143.389 188.504 143.176C188.984 142.952 189.501 142.84 190.056 142.84C190.632 142.84 191.154 142.952 191.624 143.176C192.093 143.389 192.466 143.72 192.744 144.168C193.032 144.616 193.176 145.187 193.176 145.88V151H191.896V146.328C191.896 145.443 191.704 144.829 191.32 144.488C190.946 144.136 190.482 143.96 189.928 143.96C189.544 143.96 189.16 144.051 188.776 144.232C188.392 144.413 188.072 144.707 187.816 145.112C187.57 145.517 187.448 146.061 187.448 146.744V151H186.168ZM207.697 143L203.937 152.344C203.627 153.123 203.275 153.667 202.881 153.976C202.497 154.285 202.022 154.44 201.457 154.44C201.094 154.44 200.758 154.387 200.449 154.28C200.15 154.184 199.883 154.051 199.649 153.88L200.001 152.76C200.214 152.952 200.438 153.091 200.673 153.176C200.918 153.272 201.158 153.32 201.393 153.32C201.67 153.32 201.931 153.235 202.177 153.064C202.422 152.893 202.646 152.547 202.849 152.024L203.265 150.984L202.465 149.08L199.921 143H201.377L203.377 148.216L203.873 149.64L204.449 148.056L206.321 143H207.697ZM212.683 142.84C213.44 142.84 214.107 143.005 214.683 143.336C215.269 143.667 215.728 144.147 216.059 144.776C216.389 145.395 216.555 146.136 216.555 147C216.555 147.864 216.389 148.611 216.059 149.24C215.728 149.859 215.269 150.333 214.683 150.664C214.107 150.995 213.44 151.16 212.683 151.16C211.936 151.16 211.269 150.995 210.683 150.664C210.096 150.333 209.637 149.859 209.307 149.24C208.976 148.611 208.811 147.864 208.811 147C208.811 146.136 208.976 145.395 209.307 144.776C209.637 144.147 210.096 143.667 210.683 143.336C211.269 143.005 211.936 142.84 212.683 142.84ZM212.683 143.944C211.872 143.944 211.237 144.216 210.779 144.76C210.32 145.304 210.091 146.051 210.091 147C210.091 147.949 210.32 148.696 210.779 149.24C211.237 149.784 211.872 150.056 212.683 150.056C213.493 150.056 214.128 149.784 214.587 149.24C215.045 148.696 215.275 147.949 215.275 147C215.275 146.051 215.045 145.304 214.587 144.76C214.128 144.216 213.493 143.944 212.683 143.944ZM221.861 151.16C221.349 151.16 220.863 151.064 220.405 150.872C219.957 150.68 219.589 150.371 219.301 149.944C219.023 149.507 218.885 148.941 218.885 148.248V143H220.165V147.912C220.165 148.723 220.341 149.283 220.693 149.592C221.045 149.891 221.541 150.04 222.181 150.04C222.586 150.04 222.97 149.949 223.333 149.768C223.695 149.576 223.994 149.283 224.229 148.888C224.463 148.493 224.581 147.981 224.581 147.352V143H225.861V151H224.741L224.661 149.784C224.383 150.264 224.005 150.616 223.525 150.84C223.055 151.053 222.501 151.16 221.861 151.16ZM228.84 151V143H229.88L230.056 144.312C230.504 143.331 231.357 142.84 232.616 142.84C232.754 142.84 232.904 142.851 233.064 142.872C233.234 142.893 233.378 142.936 233.496 143L233.272 144.168C233.154 144.125 233.026 144.093 232.888 144.072C232.749 144.051 232.552 144.04 232.296 144.04C231.965 144.04 231.629 144.136 231.288 144.328C230.957 144.52 230.68 144.813 230.456 145.208C230.232 145.592 230.12 146.083 230.12 146.68V151H228.84ZM98.4646 178.36V167H99.5846L99.6646 168.408C99.9099 167.939 100.273 167.56 100.753 167.272C101.243 166.984 101.803 166.84 102.433 166.84C103.083 166.84 103.681 167.005 104.225 167.336C104.779 167.667 105.222 168.141 105.553 168.76C105.883 169.379 106.049 170.125 106.049 171C106.049 171.864 105.878 172.611 105.537 173.24C105.206 173.859 104.763 174.333 104.209 174.664C103.654 174.995 103.046 175.16 102.385 175.16C101.787 175.16 101.259 175.032 100.801 174.776C100.342 174.509 99.9899 174.168 99.7446 173.752V178.36H98.4646ZM102.257 174.04C103.046 174.04 103.659 173.763 104.097 173.208C104.545 172.653 104.769 171.917 104.769 171C104.769 170.083 104.55 169.347 104.113 168.792C103.686 168.237 103.083 167.96 102.305 167.96C101.537 167.96 100.918 168.237 100.449 168.792C99.9792 169.347 99.7446 170.083 99.7446 171C99.7446 171.917 99.9739 172.653 100.433 173.208C100.891 173.763 101.499 174.04 102.257 174.04ZM108.496 175V167H109.536L109.712 168.312C110.16 167.331 111.013 166.84 112.272 166.84C112.41 166.84 112.56 166.851 112.72 166.872C112.89 166.893 113.034 166.936 113.152 167L112.928 168.168C112.81 168.125 112.682 168.093 112.544 168.072C112.405 168.051 112.208 168.04 111.952 168.04C111.621 168.04 111.285 168.136 110.944 168.328C110.613 168.52 110.336 168.813 110.112 169.208C109.888 169.592 109.776 170.083 109.776 170.68V175H108.496ZM118.089 166.84C118.846 166.84 119.513 167.005 120.089 167.336C120.676 167.667 121.134 168.147 121.465 168.776C121.796 169.395 121.961 170.136 121.961 171C121.961 171.864 121.796 172.611 121.465 173.24C121.134 173.859 120.676 174.333 120.089 174.664C119.513 174.995 118.846 175.16 118.089 175.16C117.342 175.16 116.676 174.995 116.089 174.664C115.502 174.333 115.044 173.859 114.713 173.24C114.382 172.611 114.217 171.864 114.217 171C114.217 170.136 114.382 169.395 114.713 168.776C115.044 168.147 115.502 167.667 116.089 167.336C116.676 167.005 117.342 166.84 118.089 166.84ZM118.089 167.944C117.278 167.944 116.644 168.216 116.185 168.76C115.726 169.304 115.497 170.051 115.497 171C115.497 171.949 115.726 172.696 116.185 173.24C116.644 173.784 117.278 174.056 118.089 174.056C118.9 174.056 119.534 173.784 119.993 173.24C120.452 172.696 120.681 171.949 120.681 171C120.681 170.051 120.452 169.304 119.993 168.76C119.534 168.216 118.9 167.944 118.089 167.944ZM125.011 165.464C124.723 165.464 124.488 165.379 124.307 165.208C124.136 165.027 124.051 164.792 124.051 164.504C124.051 164.216 124.136 163.987 124.307 163.816C124.488 163.635 124.723 163.544 125.011 163.544C125.299 163.544 125.528 163.635 125.699 163.816C125.88 163.987 125.971 164.216 125.971 164.504C125.971 164.792 125.88 165.027 125.699 165.208C125.528 165.379 125.299 165.464 125.011 165.464ZM125.651 167V175.816C125.651 176.477 125.523 177 125.267 177.384C125.011 177.768 124.696 178.04 124.323 178.2C123.949 178.36 123.581 178.44 123.219 178.44C122.888 178.44 122.584 178.387 122.307 178.28C122.029 178.184 121.8 178.061 121.619 177.912L121.891 176.696C122.04 176.835 122.227 176.952 122.451 177.048C122.675 177.144 122.925 177.192 123.203 177.192C123.544 177.192 123.821 177.08 124.035 176.856C124.259 176.632 124.371 176.243 124.371 175.688V167H125.651ZM131.965 175.16C131.207 175.16 130.53 174.995 129.933 174.664C129.346 174.333 128.887 173.859 128.557 173.24C128.226 172.611 128.061 171.864 128.061 171C128.061 170.136 128.226 169.395 128.557 168.776C128.887 168.147 129.341 167.667 129.917 167.336C130.493 167.005 131.149 166.84 131.885 166.84C132.631 166.84 133.266 167 133.789 167.32C134.322 167.64 134.727 168.077 135.005 168.632C135.282 169.176 135.421 169.789 135.421 170.472C135.421 170.653 135.415 170.819 135.405 170.968C135.394 171.117 135.378 171.251 135.357 171.368H129.325C129.389 172.211 129.65 172.867 130.109 173.336C130.567 173.805 131.175 174.04 131.933 174.04C132.519 174.04 132.994 173.928 133.357 173.704C133.73 173.48 134.029 173.176 134.253 172.792L135.261 173.384C134.962 173.928 134.53 174.36 133.965 174.68C133.41 175 132.743 175.16 131.965 175.16ZM131.853 167.96C131.181 167.96 130.626 168.163 130.189 168.568C129.762 168.963 129.49 169.517 129.373 170.232H134.141C134.109 169.507 133.885 168.947 133.469 168.552C133.053 168.157 132.514 167.96 131.853 167.96ZM141.167 166.84C141.989 166.84 142.671 167.032 143.215 167.416C143.759 167.789 144.181 168.307 144.479 168.968L143.263 169.544C143.093 169.032 142.831 168.643 142.479 168.376C142.138 168.099 141.69 167.96 141.135 167.96C140.335 167.96 139.706 168.232 139.247 168.776C138.799 169.309 138.575 170.051 138.575 171C138.575 171.949 138.799 172.696 139.247 173.24C139.706 173.773 140.335 174.04 141.135 174.04C141.765 174.04 142.266 173.896 142.639 173.608C143.013 173.32 143.258 172.915 143.375 172.392L144.559 172.808C144.293 173.544 143.871 174.12 143.295 174.536C142.73 174.952 142.021 175.16 141.167 175.16C140.421 175.16 139.754 174.995 139.167 174.664C138.581 174.333 138.122 173.859 137.791 173.24C137.461 172.611 137.295 171.864 137.295 171C137.295 170.136 137.461 169.395 137.791 168.776C138.122 168.147 138.581 167.667 139.167 167.336C139.754 167.005 140.421 166.84 141.167 166.84ZM151.608 167V168.104H148.696V172.792C148.696 173.187 148.808 173.48 149.032 173.672C149.256 173.864 149.544 173.96 149.896 173.96C150.206 173.96 150.472 173.907 150.696 173.8C150.92 173.693 151.123 173.549 151.304 173.368L151.752 174.44C151.507 174.664 151.214 174.84 150.872 174.968C150.542 175.096 150.158 175.16 149.72 175.16C149.315 175.16 148.936 175.091 148.584 174.952C148.232 174.803 147.95 174.573 147.736 174.264C147.534 173.944 147.427 173.528 147.416 173.016V168.104H145.816V167H147.416V165.08L148.696 164.728V167H151.608Z" fill="#647582"/>
</svg>