<svg width="249" height="182" viewBox="0 0 249 182" fill="none" xmlns="http://www.w3.org/2000/svg">
<path d="M105.833 37.3334L105.833 39.6667C105.833 43.5327 108.967 46.6667 112.833 46.6667L136.166 46.6667C140.032 46.6667 143.166 43.5327 143.166 39.6667L143.166 37.3334M133.833 18.6667L124.5 9.33335M124.5 9.33335L115.166 18.6667M124.5 9.33335L124.5 37.3334" stroke="#84160E" stroke-width="4.66667" stroke-linecap="round" stroke-linejoin="round"/>
<path d="M53.4248 76.8C54.8248 76.8 55.9448 77.1667 56.7848 77.9C57.6381 78.6333 58.0648 79.6467 58.0648 80.94C58.0648 82.22 57.6381 83.2333 56.7848 83.98C55.9448 84.7133 54.8248 85.08 53.4248 85.08H50.4848V90H48.3448V76.8H53.4248ZM53.0848 83.24C54.0314 83.24 54.7248 83.0467 55.1648 82.66C55.6181 82.2733 55.8448 81.7 55.8448 80.94C55.8448 80.18 55.6181 79.6067 55.1648 79.22C54.7248 78.82 54.0314 78.62 53.0848 78.62H50.4848V83.24H53.0848ZM64.1438 90.2C63.4905 90.2 62.8838 90.08 62.3238 89.84C61.7772 89.6 61.3372 89.2133 61.0038 88.68C60.6705 88.1467 60.5038 87.4533 60.5038 86.6V80H62.6438V86.06C62.6438 86.9667 62.8305 87.5933 63.2038 87.94C63.5905 88.2733 64.1372 88.44 64.8438 88.44C65.2972 88.44 65.7238 88.34 66.1238 88.14C66.5238 87.9267 66.8438 87.6 67.0838 87.16C67.3372 86.7067 67.4638 86.1267 67.4638 85.42V80H69.6038V90H67.7238L67.6238 88.38C67.2772 89.0067 66.8105 89.4667 66.2238 89.76C65.6372 90.0533 64.9438 90.2 64.1438 90.2ZM78.3071 90.2C77.5338 90.2 76.8471 90.0067 76.2471 89.62C75.6604 89.22 75.2204 88.7067 74.9271 88.08L74.8271 90H72.9471V75.5H75.0871V81.64C75.3938 81.0933 75.8271 80.6533 76.3871 80.32C76.9471 79.9733 77.6071 79.8 78.3671 79.8C79.1804 79.8 79.9138 80.0067 80.5671 80.42C81.2338 80.8333 81.7604 81.4333 82.1471 82.22C82.5471 82.9933 82.7471 83.9267 82.7471 85.02C82.7471 86.1 82.5471 87.0267 82.1471 87.8C81.7604 88.5733 81.2271 89.1667 80.5471 89.58C79.8804 89.9933 79.1338 90.2 78.3071 90.2ZM77.8471 88.48C78.7138 88.48 79.3871 88.1733 79.8671 87.56C80.3604 86.9333 80.6071 86.08 80.6071 85C80.6071 83.92 80.3671 83.0733 79.8871 82.46C79.4071 81.8467 78.7338 81.54 77.8671 81.54C77.0271 81.54 76.3538 81.86 75.8471 82.5C75.3404 83.1267 75.0871 83.9733 75.0871 85.04C75.0871 86.1067 75.3404 86.9467 75.8471 87.56C76.3538 88.1733 77.0204 88.48 77.8471 88.48ZM87.5662 75.5V87.2C87.5662 87.6933 87.6528 88.0333 87.8262 88.22C87.9995 88.4067 88.2862 88.5 88.6862 88.5C88.9262 88.5 89.1262 88.4867 89.2862 88.46C89.4595 88.42 89.6728 88.3533 89.9262 88.26L89.6862 89.86C89.2195 90.0867 88.6662 90.2 88.0262 90.2C87.1328 90.2 86.4728 89.9733 86.0462 89.52C85.6328 89.0667 85.4262 88.3533 85.4262 87.38V75.5H87.5662ZM92.7966 78.32C92.33 78.32 91.97 78.2067 91.7166 77.98C91.4766 77.74 91.3566 77.4067 91.3566 76.98C91.3566 76.5533 91.4766 76.2267 91.7166 76C91.97 75.7733 92.33 75.66 92.7966 75.66C93.25 75.66 93.5966 75.7733 93.8366 76C94.09 76.2267 94.2166 76.5533 94.2166 76.98C94.2166 77.4067 94.09 77.74 93.8366 77.98C93.5966 78.2067 93.25 78.32 92.7966 78.32ZM93.8566 80V90H91.7166V80H93.8566ZM101.005 90.2C100.005 90.2 99.0916 90.0067 98.2649 89.62C97.4383 89.2333 96.7849 88.6867 96.3049 87.98L97.7849 86.7C98.0783 87.2467 98.4983 87.6867 99.0449 88.02C99.6049 88.34 100.272 88.5 101.045 88.5C101.658 88.5 102.145 88.3933 102.505 88.18C102.865 87.9667 103.045 87.6667 103.045 87.28C103.045 87.0267 102.958 86.8067 102.785 86.62C102.625 86.42 102.312 86.2667 101.845 86.16L99.7449 85.72C98.6783 85.5067 97.9183 85.16 97.4649 84.68C97.0116 84.2 96.7849 83.6 96.7849 82.88C96.7849 82.3333 96.9449 81.8267 97.2649 81.36C97.5983 80.8933 98.0716 80.52 98.6849 80.24C99.2983 79.9467 100.038 79.8 100.905 79.8C101.892 79.8 102.738 79.98 103.445 80.34C104.165 80.6867 104.712 81.1867 105.085 81.84L103.605 83.08C103.338 82.5467 102.958 82.1533 102.465 81.9C101.985 81.6333 101.478 81.5 100.945 81.5C100.292 81.5 99.7849 81.62 99.4249 81.86C99.0783 82.0867 98.9049 82.3867 98.9049 82.76C98.9049 83.0133 99.0049 83.2467 99.2049 83.46C99.4049 83.66 99.7649 83.8133 100.285 83.92L102.565 84.4C103.525 84.5867 104.198 84.9067 104.585 85.36C104.985 85.8 105.185 86.34 105.185 86.98C105.185 87.94 104.812 88.72 104.065 89.32C103.318 89.9067 102.298 90.2 101.005 90.2ZM107.791 90V75.5H109.931V81.6C110.264 80.9733 110.711 80.52 111.271 80.24C111.844 79.9467 112.478 79.8 113.171 79.8C113.878 79.8 114.511 79.94 115.071 80.22C115.644 80.4867 116.098 80.9 116.431 81.46C116.764 82.0067 116.931 82.6933 116.931 83.52V90H114.791V84.2C114.791 83.2 114.584 82.5133 114.171 82.14C113.771 81.7533 113.264 81.56 112.651 81.56C112.211 81.56 111.784 81.6667 111.371 81.88C110.958 82.08 110.611 82.4133 110.331 82.88C110.064 83.3333 109.931 83.9467 109.931 84.72V90H107.791ZM124.714 90L129.694 76.8H132.254L137.234 90H134.974L133.734 86.54H128.174L126.914 90H124.714ZM130.354 80.52L128.794 84.8H133.094L131.574 80.56L130.974 78.66H130.914L130.354 80.52ZM139.275 90V80H141.095L141.295 81.8C141.842 80.4667 142.889 79.8 144.435 79.8C144.635 79.8 144.835 79.82 145.035 79.86C145.235 79.8867 145.402 79.9333 145.535 80L145.235 81.88C145.089 81.8267 144.922 81.7867 144.735 81.76C144.562 81.72 144.322 81.7 144.015 81.7C143.589 81.7 143.175 81.8133 142.775 82.04C142.389 82.2533 142.062 82.5867 141.795 83.04C141.542 83.48 141.415 84.0333 141.415 84.7V90H139.275ZM153.409 80V81.68H149.969V87C149.969 87.48 150.102 87.84 150.369 88.08C150.635 88.3067 150.982 88.42 151.409 88.42C151.782 88.42 152.095 88.3667 152.349 88.26C152.615 88.14 152.862 87.98 153.089 87.78L153.569 89.34C153.262 89.6067 152.882 89.82 152.429 89.98C151.989 90.1267 151.495 90.2 150.949 90.2C150.069 90.2 149.329 89.9867 148.729 89.56C148.129 89.12 147.829 88.3867 147.829 87.36V81.68H145.909V80H147.829V77.66L149.969 77.06V80H153.409ZM168.245 80H170.565L167.205 90H164.865L162.345 82.58L159.965 90H157.625L154.285 80H156.585L158.865 87.9L161.345 80H163.485L165.965 87.9L168.245 80ZM176.682 79.8C177.655 79.8 178.515 80.0067 179.262 80.42C180.008 80.8333 180.588 81.4333 181.002 82.22C181.428 82.9933 181.642 83.92 181.642 85C181.642 86.08 181.428 87.0133 181.002 87.8C180.588 88.5733 180.008 89.1667 179.262 89.58C178.515 89.9933 177.655 90.2 176.682 90.2C175.708 90.2 174.848 89.9933 174.102 89.58C173.355 89.1667 172.768 88.5733 172.342 87.8C171.915 87.0133 171.702 86.08 171.702 85C171.702 83.92 171.915 82.9933 172.342 82.22C172.768 81.4333 173.355 80.8333 174.102 80.42C174.848 80.0067 175.708 79.8 176.682 79.8ZM176.682 81.48C175.802 81.48 175.108 81.7867 174.602 82.4C174.095 83 173.842 83.8667 173.842 85C173.842 86.1333 174.095 87.0067 174.602 87.62C175.108 88.22 175.802 88.52 176.682 88.52C177.562 88.52 178.248 88.22 178.742 87.62C179.248 87.0067 179.502 86.1333 179.502 85C179.502 83.8667 179.248 83 178.742 82.4C178.248 81.7867 177.562 81.48 176.682 81.48ZM184.334 90V80H186.154L186.354 81.8C186.9 80.4667 187.947 79.8 189.494 79.8C189.694 79.8 189.894 79.82 190.094 79.86C190.294 79.8867 190.46 79.9333 190.594 80L190.294 81.88C190.147 81.8267 189.98 81.7867 189.794 81.76C189.62 81.72 189.38 81.7 189.074 81.7C188.647 81.7 188.234 81.8133 187.834 82.04C187.447 82.2533 187.12 82.5867 186.854 83.04C186.6 83.48 186.474 84.0333 186.474 84.7V90H184.334ZM202.055 80L198.235 83.92L202.295 90H199.815L196.735 85.3L194.755 87.34V90H192.615V75.5H194.755V84.88L199.515 80H202.055Z" fill="black"/>
<path d="M19.4404 116.44C20.155 116.44 20.7737 116.573 21.2964 116.84C21.8297 117.096 22.2457 117.464 22.5444 117.944C22.843 118.424 22.9924 118.995 22.9924 119.656C22.9924 120.317 22.843 120.888 22.5444 121.368C22.2457 121.848 21.8297 122.221 21.2964 122.488C20.7737 122.744 20.155 122.872 19.4404 122.872H16.9924V127H15.7124V116.44H19.4404ZM19.2484 121.672C20.0804 121.672 20.6884 121.501 21.0724 121.16C21.4564 120.808 21.6484 120.307 21.6484 119.656C21.6484 118.995 21.4564 118.493 21.0724 118.152C20.6884 117.811 20.0804 117.64 19.2484 117.64H16.9924V121.672H19.2484ZM28.134 127.16C27.622 127.16 27.1367 127.064 26.678 126.872C26.23 126.68 25.862 126.371 25.574 125.944C25.2967 125.507 25.158 124.941 25.158 124.248V119H26.438V123.912C26.438 124.723 26.614 125.283 26.966 125.592C27.318 125.891 27.814 126.04 28.454 126.04C28.8593 126.04 29.2433 125.949 29.606 125.768C29.9687 125.576 30.2673 125.283 30.502 124.888C30.7367 124.493 30.854 123.981 30.854 123.352V119H32.134V127H31.014L30.934 125.784C30.6567 126.264 30.278 126.616 29.798 126.84C29.3287 127.053 28.774 127.16 28.134 127.16ZM39.033 127.16C38.425 127.16 37.881 127.016 37.401 126.728C36.921 126.44 36.5583 126.061 36.313 125.592L36.233 127H35.113V115.32H36.393V120.248C36.649 119.832 37.0063 119.496 37.465 119.24C37.9343 118.973 38.4623 118.84 39.049 118.84C39.7103 118.84 40.3183 119.005 40.873 119.336C41.4277 119.667 41.8703 120.141 42.201 120.76C42.5317 121.379 42.697 122.125 42.697 123C42.697 123.864 42.5263 124.611 42.185 125.24C41.8543 125.859 41.4117 126.333 40.857 126.664C40.3023 126.995 39.6943 127.16 39.033 127.16ZM38.905 126.04C39.6943 126.04 40.3077 125.763 40.745 125.208C41.193 124.653 41.417 123.917 41.417 123C41.417 122.083 41.1983 121.347 40.761 120.792C40.3237 120.237 39.7103 119.96 38.921 119.96C38.1743 119.96 37.5663 120.243 37.097 120.808C36.6277 121.373 36.393 122.115 36.393 123.032C36.393 123.949 36.6223 124.68 37.081 125.224C37.5503 125.768 38.1583 126.04 38.905 126.04ZM46.3603 115.32V124.968C46.3603 125.373 46.4349 125.656 46.5843 125.816C46.7336 125.965 46.9736 126.04 47.3043 126.04C47.5176 126.04 47.6936 126.024 47.8323 125.992C47.9709 125.96 48.1576 125.901 48.3923 125.816L48.1843 126.936C47.8323 127.085 47.4376 127.16 47.0003 127.16C45.7203 127.16 45.0803 126.445 45.0803 125.016V115.32H46.3603ZM50.6749 117.464C50.3869 117.464 50.1522 117.379 49.9709 117.208C49.8002 117.027 49.7149 116.792 49.7149 116.504C49.7149 116.216 49.8002 115.987 49.9709 115.816C50.1522 115.635 50.3869 115.544 50.6749 115.544C50.9629 115.544 51.1922 115.635 51.3629 115.816C51.5442 115.987 51.6349 116.216 51.6349 116.504C51.6349 116.792 51.5442 117.027 51.3629 117.208C51.1922 117.379 50.9629 117.464 50.6749 117.464ZM51.3149 119V127H50.0349V119H51.3149ZM57.1649 127.16C56.3862 127.16 55.6662 126.995 55.0049 126.664C54.3542 126.333 53.8529 125.864 53.5009 125.256L54.5889 124.472C54.8235 124.963 55.1649 125.347 55.6129 125.624C56.0715 125.901 56.6209 126.04 57.2609 126.04C57.8262 126.04 58.2689 125.933 58.5889 125.72C58.9089 125.496 59.0689 125.208 59.0689 124.856C59.0689 124.632 58.9942 124.429 58.8449 124.248C58.7062 124.056 58.4342 123.917 58.0289 123.832L56.1089 123.432C55.3302 123.272 54.7702 123.005 54.4289 122.632C54.0982 122.259 53.9329 121.795 53.9329 121.24C53.9329 120.803 54.0555 120.403 54.3009 120.04C54.5569 119.677 54.9142 119.389 55.3729 119.176C55.8422 118.952 56.3915 118.84 57.0209 118.84C57.8102 118.84 58.4769 118.995 59.0209 119.304C59.5649 119.613 59.9702 120.051 60.2369 120.616L59.1649 121.32C58.9835 120.851 58.6902 120.509 58.2849 120.296C57.8795 120.072 57.4582 119.96 57.0209 119.96C56.4449 119.96 55.9969 120.077 55.6769 120.312C55.3569 120.547 55.1969 120.84 55.1969 121.192C55.1969 121.427 55.2769 121.645 55.4369 121.848C55.5969 122.04 55.8955 122.179 56.3329 122.264L58.3329 122.68C59.0795 122.829 59.6022 123.075 59.9009 123.416C60.1995 123.757 60.3489 124.173 60.3489 124.664C60.3489 125.421 60.0555 126.029 59.4689 126.488C58.8822 126.936 58.1142 127.16 57.1649 127.16ZM62.7224 127V115.32H64.0024V120.2C64.2797 119.72 64.6477 119.373 65.1064 119.16C65.565 118.947 66.0664 118.84 66.6104 118.84C67.1864 118.84 67.709 118.952 68.1784 119.176C68.6477 119.389 69.021 119.72 69.2984 120.168C69.5864 120.616 69.7304 121.187 69.7304 121.88V127H68.4504V122.328C68.4504 121.443 68.2584 120.829 67.8744 120.488C67.501 120.136 67.037 119.96 66.4824 119.96C66.0984 119.96 65.7144 120.051 65.3304 120.232C64.9464 120.413 64.6264 120.712 64.3704 121.128C64.125 121.533 64.0024 122.077 64.0024 122.76V127H62.7224ZM82.7538 121.832C82.7538 121.235 82.5938 120.776 82.2738 120.456C81.9538 120.125 81.5004 119.96 80.9138 119.96C80.3591 119.96 79.8898 120.083 79.5058 120.328C79.1218 120.563 78.8391 120.947 78.6578 121.48L77.6178 120.84C77.8311 120.243 78.2258 119.763 78.8018 119.4C79.3778 119.027 80.0924 118.84 80.9458 118.84C81.5218 118.84 82.0444 118.941 82.5138 119.144C82.9831 119.336 83.3511 119.635 83.6178 120.04C83.8951 120.435 84.0338 120.947 84.0338 121.576V125.448C84.0338 125.832 84.2364 126.024 84.6418 126.024C84.8444 126.024 85.0418 125.997 85.2338 125.944L85.1698 126.952C84.9564 127.059 84.6791 127.112 84.3378 127.112C83.9431 127.112 83.6018 127.016 83.3138 126.824C83.0364 126.632 82.8551 126.339 82.7698 125.944C82.4924 126.36 82.1138 126.669 81.6338 126.872C81.1538 127.064 80.6791 127.16 80.2098 127.16C79.7404 127.16 79.3031 127.08 78.8978 126.92C78.4924 126.76 78.1671 126.52 77.9218 126.2C77.6871 125.869 77.5698 125.464 77.5698 124.984C77.5698 124.387 77.7671 123.896 78.1618 123.512C78.5671 123.117 79.1271 122.851 79.8418 122.712L82.7538 122.136V121.832ZM78.8818 124.92C78.8818 125.251 79.0098 125.523 79.2658 125.736C79.5324 125.939 79.9058 126.04 80.3858 126.04C80.8018 126.04 81.1858 125.971 81.5378 125.832C81.9004 125.683 82.1938 125.464 82.4178 125.176C82.6418 124.877 82.7538 124.499 82.7538 124.04V123.192L80.4338 123.672C79.9111 123.779 79.5218 123.928 79.2658 124.12C79.0098 124.312 78.8818 124.579 78.8818 124.92ZM96.5015 119V120.104H93.8295V127H92.5495V120.104H90.9495V119H92.5495V117.656C92.5495 116.941 92.7682 116.36 93.2055 115.912C93.6428 115.464 94.2988 115.24 95.1735 115.24C95.4508 115.24 95.7122 115.272 95.9575 115.336C96.2028 115.4 96.3948 115.491 96.5335 115.608L96.1975 116.648C95.9415 116.488 95.6375 116.408 95.2855 116.408C94.8268 116.408 94.4695 116.52 94.2135 116.744C93.9575 116.957 93.8295 117.304 93.8295 117.784V119H96.5015ZM101.332 127.16C100.575 127.16 99.8973 126.995 99.3 126.664C98.7133 126.333 98.2547 125.859 97.924 125.24C97.5933 124.611 97.428 123.864 97.428 123C97.428 122.136 97.5933 121.395 97.924 120.776C98.2547 120.147 98.708 119.667 99.284 119.336C99.86 119.005 100.516 118.84 101.252 118.84C101.999 118.84 102.633 119 103.156 119.32C103.689 119.64 104.095 120.077 104.372 120.632C104.649 121.176 104.788 121.789 104.788 122.472C104.788 122.653 104.783 122.819 104.772 122.968C104.761 123.117 104.745 123.251 104.724 123.368H98.692C98.756 124.211 99.0173 124.867 99.476 125.336C99.9347 125.805 100.543 126.04 101.3 126.04C101.887 126.04 102.361 125.928 102.724 125.704C103.097 125.48 103.396 125.176 103.62 124.792L104.628 125.384C104.329 125.928 103.897 126.36 103.332 126.68C102.777 127 102.111 127.16 101.332 127.16ZM101.22 119.96C100.548 119.96 99.9933 120.163 99.556 120.568C99.1293 120.963 98.8573 121.517 98.74 122.232H103.508C103.476 121.507 103.252 120.947 102.836 120.552C102.42 120.157 101.881 119.96 101.22 119.96ZM111.894 121.832C111.894 121.235 111.734 120.776 111.414 120.456C111.094 120.125 110.641 119.96 110.054 119.96C109.5 119.96 109.03 120.083 108.646 120.328C108.262 120.563 107.98 120.947 107.798 121.48L106.758 120.84C106.972 120.243 107.366 119.763 107.942 119.4C108.518 119.027 109.233 118.84 110.086 118.84C110.662 118.84 111.185 118.941 111.654 119.144C112.124 119.336 112.492 119.635 112.758 120.04C113.036 120.435 113.174 120.947 113.174 121.576V125.448C113.174 125.832 113.377 126.024 113.782 126.024C113.985 126.024 114.182 125.997 114.374 125.944L114.31 126.952C114.097 127.059 113.82 127.112 113.478 127.112C113.084 127.112 112.742 127.016 112.454 126.824C112.177 126.632 111.996 126.339 111.91 125.944C111.633 126.36 111.254 126.669 110.774 126.872C110.294 127.064 109.82 127.16 109.35 127.16C108.881 127.16 108.444 127.08 108.038 126.92C107.633 126.76 107.308 126.52 107.062 126.2C106.828 125.869 106.71 125.464 106.71 124.984C106.71 124.387 106.908 123.896 107.302 123.512C107.708 123.117 108.268 122.851 108.982 122.712L111.894 122.136V121.832ZM108.022 124.92C108.022 125.251 108.15 125.523 108.406 125.736C108.673 125.939 109.046 126.04 109.526 126.04C109.942 126.04 110.326 125.971 110.678 125.832C111.041 125.683 111.334 125.464 111.558 125.176C111.782 124.877 111.894 124.499 111.894 124.04V123.192L109.574 123.672C109.052 123.779 108.662 123.928 108.406 124.12C108.15 124.312 108.022 124.579 108.022 124.92ZM120.772 119V120.104H117.86V124.792C117.86 125.187 117.972 125.48 118.196 125.672C118.42 125.864 118.708 125.96 119.06 125.96C119.37 125.96 119.636 125.907 119.86 125.8C120.084 125.693 120.287 125.549 120.468 125.368L120.916 126.44C120.671 126.664 120.378 126.84 120.036 126.968C119.706 127.096 119.322 127.16 118.884 127.16C118.479 127.16 118.1 127.091 117.748 126.952C117.396 126.803 117.114 126.573 116.9 126.264C116.698 125.944 116.591 125.528 116.58 125.016V120.104H114.98V119H116.58V117.08L117.86 116.728V119H120.772ZM125.572 127.16C125.06 127.16 124.574 127.064 124.116 126.872C123.668 126.68 123.3 126.371 123.012 125.944C122.734 125.507 122.596 124.941 122.596 124.248V119H123.876V123.912C123.876 124.723 124.052 125.283 124.404 125.592C124.756 125.891 125.252 126.04 125.891 126.04C126.297 126.04 126.681 125.949 127.044 125.768C127.406 125.576 127.705 125.283 127.94 124.888C128.174 124.493 128.292 123.981 128.292 123.352V119H129.572V127H128.452L128.372 125.784C128.094 126.264 127.716 126.616 127.236 126.84C126.766 127.053 126.212 127.16 125.572 127.16ZM132.551 127V119H133.591L133.767 120.312C134.215 119.331 135.068 118.84 136.327 118.84C136.465 118.84 136.615 118.851 136.775 118.872C136.945 118.893 137.089 118.936 137.207 119L136.983 120.168C136.865 120.125 136.737 120.093 136.599 120.072C136.46 120.051 136.263 120.04 136.007 120.04C135.676 120.04 135.34 120.136 134.999 120.328C134.668 120.52 134.391 120.813 134.167 121.208C133.943 121.592 133.831 122.083 133.831 122.68V127H132.551ZM142.176 127.16C141.418 127.16 140.741 126.995 140.144 126.664C139.557 126.333 139.098 125.859 138.768 125.24C138.437 124.611 138.272 123.864 138.272 123C138.272 122.136 138.437 121.395 138.768 120.776C139.098 120.147 139.552 119.667 140.128 119.336C140.704 119.005 141.36 118.84 142.096 118.84C142.842 118.84 143.477 119 144 119.32C144.533 119.64 144.938 120.077 145.216 120.632C145.493 121.176 145.632 121.789 145.632 122.472C145.632 122.653 145.626 122.819 145.616 122.968C145.605 123.117 145.589 123.251 145.568 123.368H139.536C139.6 124.211 139.861 124.867 140.32 125.336C140.778 125.805 141.386 126.04 142.144 126.04C142.73 126.04 143.205 125.928 143.568 125.704C143.941 125.48 144.24 125.176 144.464 124.792L145.472 125.384C145.173 125.928 144.741 126.36 144.176 126.68C143.621 127 142.954 127.16 142.176 127.16ZM142.064 119.96C141.392 119.96 140.837 120.163 140.4 120.568C139.973 120.963 139.701 121.517 139.584 122.232H144.352C144.32 121.507 144.096 120.947 143.68 120.552C143.264 120.157 142.725 119.96 142.064 119.96ZM151.186 127.16C150.525 127.16 149.917 126.995 149.362 126.664C148.807 126.333 148.365 125.859 148.034 125.24C147.703 124.611 147.538 123.864 147.538 123C147.538 122.115 147.714 121.363 148.066 120.744C148.418 120.125 148.882 119.656 149.458 119.336C150.034 119.005 150.653 118.84 151.314 118.84C151.89 118.84 152.402 118.973 152.85 119.24C153.298 119.496 153.629 119.848 153.842 120.296V115.32H155.122V127H154.002L153.922 125.496C153.698 126.04 153.335 126.456 152.834 126.744C152.333 127.021 151.783 127.16 151.186 127.16ZM151.314 126.04C152.071 126.04 152.679 125.757 153.138 125.192C153.607 124.627 153.842 123.859 153.842 122.888C153.842 121.971 153.613 121.256 153.154 120.744C152.695 120.221 152.103 119.96 151.378 119.96C150.567 119.96 149.938 120.237 149.49 120.792C149.042 121.347 148.818 122.083 148.818 123C148.818 123.917 149.037 124.653 149.474 125.208C149.911 125.763 150.525 126.04 151.314 126.04ZM173.223 119H174.647L171.863 127H170.583L168.327 120.632L166.199 127H164.919L162.135 119H163.559L165.575 125.512L167.751 119H169.031L171.207 125.512L173.223 119ZM179.628 118.84C180.385 118.84 181.052 119.005 181.628 119.336C182.215 119.667 182.673 120.147 183.004 120.776C183.335 121.395 183.5 122.136 183.5 123C183.5 123.864 183.335 124.611 183.004 125.24C182.673 125.859 182.215 126.333 181.628 126.664C181.052 126.995 180.385 127.16 179.628 127.16C178.881 127.16 178.215 126.995 177.628 126.664C177.041 126.333 176.583 125.859 176.252 125.24C175.921 124.611 175.756 123.864 175.756 123C175.756 122.136 175.921 121.395 176.252 120.776C176.583 120.147 177.041 119.667 177.628 119.336C178.215 119.005 178.881 118.84 179.628 118.84ZM179.628 119.944C178.817 119.944 178.183 120.216 177.724 120.76C177.265 121.304 177.036 122.051 177.036 123C177.036 123.949 177.265 124.696 177.724 125.24C178.183 125.784 178.817 126.056 179.628 126.056C180.439 126.056 181.073 125.784 181.532 125.24C181.991 124.696 182.22 123.949 182.22 123C182.22 122.051 181.991 121.304 181.532 120.76C181.073 120.216 180.439 119.944 179.628 119.944ZM185.91 127V119H186.95L187.126 120.312C187.574 119.331 188.427 118.84 189.686 118.84C189.825 118.84 189.974 118.851 190.134 118.872C190.305 118.893 190.449 118.936 190.566 119L190.342 120.168C190.225 120.125 190.097 120.093 189.958 120.072C189.819 120.051 189.622 120.04 189.366 120.04C189.035 120.04 188.699 120.136 188.358 120.328C188.027 120.52 187.75 120.813 187.526 121.208C187.302 121.592 187.19 122.083 187.19 122.68V127H185.91ZM199.465 119L196.345 122.12L199.657 127H198.105L195.417 123.048L193.721 124.744V127H192.441V115.32H193.721V123.144L197.849 119H199.465ZM209.925 118.84C210.682 118.84 211.349 119.005 211.925 119.336C212.512 119.667 212.97 120.147 213.301 120.776C213.632 121.395 213.797 122.136 213.797 123C213.797 123.864 213.632 124.611 213.301 125.24C212.97 125.859 212.512 126.333 211.925 126.664C211.349 126.995 210.682 127.16 209.925 127.16C209.178 127.16 208.512 126.995 207.925 126.664C207.338 126.333 206.88 125.859 206.549 125.24C206.218 124.611 206.053 123.864 206.053 123C206.053 122.136 206.218 121.395 206.549 120.776C206.88 120.147 207.338 119.667 207.925 119.336C208.512 119.005 209.178 118.84 209.925 118.84ZM209.925 119.944C209.114 119.944 208.48 120.216 208.021 120.76C207.562 121.304 207.333 122.051 207.333 123C207.333 123.949 207.562 124.696 208.021 125.24C208.48 125.784 209.114 126.056 209.925 126.056C210.736 126.056 211.37 125.784 211.829 125.24C212.288 124.696 212.517 123.949 212.517 123C212.517 122.051 212.288 121.304 211.829 120.76C211.37 120.216 210.736 119.944 209.925 119.944ZM216.207 127V119H217.247L217.423 120.312C217.871 119.331 218.724 118.84 219.983 118.84C220.121 118.84 220.271 118.851 220.431 118.872C220.601 118.893 220.745 118.936 220.863 119L220.639 120.168C220.521 120.125 220.393 120.093 220.255 120.072C220.116 120.051 219.919 120.04 219.663 120.04C219.332 120.04 218.996 120.136 218.655 120.328C218.324 120.52 218.047 120.813 217.823 121.208C217.599 121.592 217.487 122.083 217.487 122.68V127H216.207ZM232.488 121.832C232.488 121.235 232.328 120.776 232.008 120.456C231.688 120.125 231.235 119.96 230.648 119.96C230.093 119.96 229.624 120.083 229.24 120.328C228.856 120.563 228.573 120.947 228.392 121.48L227.352 120.84C227.565 120.243 227.96 119.763 228.536 119.4C229.112 119.027 229.827 118.84 230.68 118.84C231.256 118.84 231.779 118.941 232.248 119.144C232.717 119.336 233.085 119.635 233.352 120.04C233.629 120.435 233.768 120.947 233.768 121.576V125.448C233.768 125.832 233.971 126.024 234.376 126.024C234.579 126.024 234.776 125.997 234.968 125.944L234.904 126.952C234.691 127.059 234.413 127.112 234.072 127.112C233.677 127.112 233.336 127.016 233.048 126.824C232.771 126.632 232.589 126.339 232.504 125.944C232.227 126.36 231.848 126.669 231.368 126.872C230.888 127.064 230.413 127.16 229.944 127.16C229.475 127.16 229.037 127.08 228.632 126.92C228.227 126.76 227.901 126.52 227.656 126.2C227.421 125.869 227.304 125.464 227.304 124.984C227.304 124.387 227.501 123.896 227.896 123.512C228.301 123.117 228.861 122.851 229.576 122.712L232.488 122.136V121.832ZM228.616 124.92C228.616 125.251 228.744 125.523 229 125.736C229.267 125.939 229.64 126.04 230.12 126.04C230.536 126.04 230.92 125.971 231.272 125.832C231.635 125.683 231.928 125.464 232.152 125.176C232.376 124.877 232.488 124.499 232.488 124.04V123.192L230.168 123.672C229.645 123.779 229.256 123.928 229 124.12C228.744 124.312 228.616 124.579 228.616 124.92ZM38.8363 140.44V151H37.2523L32.8363 143.928L31.7163 141.944H31.7003L31.7643 143.544V151H30.5483V140.44H32.1323L36.5323 147.48L37.6683 149.512H37.6843L37.6203 147.896V140.44H38.8363ZM49.6903 141.64H43.5783V145.048H48.3463V146.248H43.5783V151H42.2983V140.44H49.6903V141.64ZM59.4879 140.44V141.64H55.8079V151H54.5279V141.64H50.8479V140.44H59.4879ZM70.7749 143V144.104H68.1029V151H66.8229V144.104H65.2229V143H66.8229V141.656C66.8229 140.941 67.0416 140.36 67.4789 139.912C67.9163 139.464 68.5723 139.24 69.4469 139.24C69.7243 139.24 69.9856 139.272 70.2309 139.336C70.4763 139.4 70.6683 139.491 70.8069 139.608L70.4709 140.648C70.2149 140.488 69.9109 140.408 69.5589 140.408C69.1003 140.408 68.7429 140.52 68.4869 140.744C68.2309 140.957 68.1029 141.304 68.1029 141.784V143H70.7749ZM75.5734 142.84C76.3308 142.84 76.9974 143.005 77.5734 143.336C78.1601 143.667 78.6188 144.147 78.9494 144.776C79.2801 145.395 79.4454 146.136 79.4454 147C79.4454 147.864 79.2801 148.611 78.9494 149.24C78.6188 149.859 78.1601 150.333 77.5734 150.664C76.9974 150.995 76.3308 151.16 75.5734 151.16C74.8268 151.16 74.1601 150.995 73.5734 150.664C72.9868 150.333 72.5281 149.859 72.1974 149.24C71.8668 148.611 71.7014 147.864 71.7014 147C71.7014 146.136 71.8668 145.395 72.1974 144.776C72.5281 144.147 72.9868 143.667 73.5734 143.336C74.1601 143.005 74.8268 142.84 75.5734 142.84ZM75.5734 143.944C74.7628 143.944 74.1281 144.216 73.6694 144.76C73.2108 145.304 72.9814 146.051 72.9814 147C72.9814 147.949 73.2108 148.696 73.6694 149.24C74.1281 149.784 74.7628 150.056 75.5734 150.056C76.3841 150.056 77.0188 149.784 77.4774 149.24C77.9361 148.696 78.1654 147.949 78.1654 147C78.1654 146.051 77.9361 145.304 77.4774 144.76C77.0188 144.216 76.3841 143.944 75.5734 143.944ZM81.8552 151V143H82.8952L83.0712 144.312C83.5192 143.331 84.3725 142.84 85.6312 142.84C85.7699 142.84 85.9192 142.851 86.0792 142.872C86.2499 142.893 86.3939 142.936 86.5112 143L86.2872 144.168C86.1699 144.125 86.0419 144.093 85.9032 144.072C85.7645 144.051 85.5672 144.04 85.3112 144.04C84.9805 144.04 84.6445 144.136 84.3032 144.328C83.9725 144.52 83.6952 144.813 83.4712 145.208C83.2472 145.592 83.1352 146.083 83.1352 146.68V151H81.8552ZM96.3446 151.16C95.5659 151.16 94.8459 150.995 94.1846 150.664C93.5339 150.333 93.0326 149.864 92.6806 149.256L93.7686 148.472C94.0032 148.963 94.3446 149.347 94.7926 149.624C95.2512 149.901 95.8006 150.04 96.4406 150.04C97.0059 150.04 97.4486 149.933 97.7686 149.72C98.0886 149.496 98.2486 149.208 98.2486 148.856C98.2486 148.632 98.1739 148.429 98.0246 148.248C97.8859 148.056 97.6139 147.917 97.2086 147.832L95.2886 147.432C94.5099 147.272 93.9499 147.005 93.6086 146.632C93.2779 146.259 93.1126 145.795 93.1126 145.24C93.1126 144.803 93.2352 144.403 93.4806 144.04C93.7366 143.677 94.0939 143.389 94.5526 143.176C95.0219 142.952 95.5712 142.84 96.2006 142.84C96.9899 142.84 97.6566 142.995 98.2006 143.304C98.7446 143.613 99.1499 144.051 99.4166 144.616L98.3446 145.32C98.1632 144.851 97.8699 144.509 97.4646 144.296C97.0592 144.072 96.6379 143.96 96.2006 143.96C95.6246 143.96 95.1766 144.077 94.8566 144.312C94.5366 144.547 94.3766 144.84 94.3766 145.192C94.3766 145.427 94.4566 145.645 94.6166 145.848C94.7766 146.04 95.0752 146.179 95.5126 146.264L97.5126 146.68C98.2592 146.829 98.7819 147.075 99.0806 147.416C99.3792 147.757 99.5286 148.173 99.5286 148.664C99.5286 149.421 99.2352 150.029 98.6486 150.488C98.0619 150.936 97.2939 151.16 96.3446 151.16ZM106.574 145.832C106.574 145.235 106.414 144.776 106.094 144.456C105.774 144.125 105.321 143.96 104.734 143.96C104.179 143.96 103.71 144.083 103.326 144.328C102.942 144.563 102.659 144.947 102.478 145.48L101.438 144.84C101.651 144.243 102.046 143.763 102.622 143.4C103.198 143.027 103.913 142.84 104.766 142.84C105.342 142.84 105.865 142.941 106.334 143.144C106.803 143.336 107.171 143.635 107.438 144.04C107.715 144.435 107.854 144.947 107.854 145.576V149.448C107.854 149.832 108.057 150.024 108.462 150.024C108.665 150.024 108.862 149.997 109.054 149.944L108.99 150.952C108.777 151.059 108.499 151.112 108.158 151.112C107.763 151.112 107.422 151.016 107.134 150.824C106.857 150.632 106.675 150.339 106.59 149.944C106.313 150.36 105.934 150.669 105.454 150.872C104.974 151.064 104.499 151.16 104.03 151.16C103.561 151.16 103.123 151.08 102.718 150.92C102.313 150.76 101.987 150.52 101.742 150.2C101.507 149.869 101.39 149.464 101.39 148.984C101.39 148.387 101.587 147.896 101.982 147.512C102.387 147.117 102.947 146.851 103.662 146.712L106.574 146.136V145.832ZM102.702 148.92C102.702 149.251 102.83 149.523 103.086 149.736C103.353 149.939 103.726 150.04 104.206 150.04C104.622 150.04 105.006 149.971 105.358 149.832C105.721 149.683 106.014 149.464 106.238 149.176C106.462 148.877 106.574 148.499 106.574 148.04V147.192L104.254 147.672C103.731 147.779 103.342 147.928 103.086 148.12C102.83 148.312 102.702 148.579 102.702 148.92ZM112.181 139.32V148.968C112.181 149.373 112.255 149.656 112.405 149.816C112.554 149.965 112.794 150.04 113.125 150.04C113.338 150.04 113.514 150.024 113.653 149.992C113.791 149.96 113.978 149.901 114.213 149.816L114.005 150.936C113.653 151.085 113.258 151.16 112.821 151.16C111.541 151.16 110.901 150.445 110.901 149.016V139.32H112.181ZM119.199 151.16C118.442 151.16 117.765 150.995 117.167 150.664C116.581 150.333 116.122 149.859 115.791 149.24C115.461 148.611 115.295 147.864 115.295 147C115.295 146.136 115.461 145.395 115.791 144.776C116.122 144.147 116.575 143.667 117.151 143.336C117.727 143.005 118.383 142.84 119.119 142.84C119.866 142.84 120.501 143 121.023 143.32C121.557 143.64 121.962 144.077 122.239 144.632C122.517 145.176 122.655 145.789 122.655 146.472C122.655 146.653 122.65 146.819 122.639 146.968C122.629 147.117 122.613 147.251 122.591 147.368H116.559C116.623 148.211 116.885 148.867 117.343 149.336C117.802 149.805 118.41 150.04 119.167 150.04C119.754 150.04 120.229 149.928 120.591 149.704C120.965 149.48 121.263 149.176 121.487 148.792L122.495 149.384C122.197 149.928 121.765 150.36 121.199 150.68C120.645 151 119.978 151.16 119.199 151.16ZM119.087 143.96C118.415 143.96 117.861 144.163 117.423 144.568C116.997 144.963 116.725 145.517 116.607 146.232H121.375C121.343 145.507 121.119 144.947 120.703 144.552C120.287 144.157 119.749 143.96 119.087 143.96ZM125.73 149.08C126.039 149.08 126.29 149.176 126.482 149.368C126.674 149.56 126.77 149.811 126.77 150.12C126.77 150.429 126.674 150.68 126.482 150.872C126.29 151.064 126.039 151.16 125.73 151.16C125.42 151.16 125.17 151.064 124.978 150.872C124.786 150.68 124.69 150.429 124.69 150.12C124.69 149.811 124.786 149.56 124.978 149.368C125.17 149.176 125.42 149.08 125.73 149.08ZM138.761 140.44C139.475 140.44 140.094 140.573 140.617 140.84C141.15 141.096 141.566 141.464 141.865 141.944C142.163 142.424 142.313 142.995 142.313 143.656C142.313 144.317 142.163 144.888 141.865 145.368C141.566 145.848 141.15 146.221 140.617 146.488C140.094 146.744 139.475 146.872 138.761 146.872H136.313V151H135.033V140.44H138.761ZM138.569 145.672C139.401 145.672 140.009 145.501 140.393 145.16C140.777 144.808 140.969 144.307 140.969 143.656C140.969 142.995 140.777 142.493 140.393 142.152C140.009 141.811 139.401 141.64 138.569 141.64H136.313V145.672H138.569ZM144.558 151V143H145.598L145.774 144.312C146.222 143.331 147.076 142.84 148.334 142.84C148.473 142.84 148.622 142.851 148.782 142.872C148.953 142.893 149.097 142.936 149.214 143L148.99 144.168C148.873 144.125 148.745 144.093 148.606 144.072C148.468 144.051 148.27 144.04 148.014 144.04C147.684 144.04 147.348 144.136 147.006 144.328C146.676 144.52 146.398 144.813 146.174 145.208C145.95 145.592 145.838 146.083 145.838 146.68V151H144.558ZM151.73 141.464C151.442 141.464 151.207 141.379 151.026 141.208C150.855 141.027 150.77 140.792 150.77 140.504C150.77 140.216 150.855 139.987 151.026 139.816C151.207 139.635 151.442 139.544 151.73 139.544C152.018 139.544 152.247 139.635 152.418 139.816C152.599 139.987 152.69 140.216 152.69 140.504C152.69 140.792 152.599 141.027 152.418 141.208C152.247 141.379 152.018 141.464 151.73 141.464ZM152.37 143V151H151.09V143H152.37ZM160.636 143H161.98L158.652 151H157.372L154.044 143H155.5L158.028 149.704L160.636 143ZM168.121 145.832C168.121 145.235 167.961 144.776 167.641 144.456C167.321 144.125 166.868 143.96 166.281 143.96C165.726 143.96 165.257 144.083 164.873 144.328C164.489 144.563 164.206 144.947 164.025 145.48L162.985 144.84C163.198 144.243 163.593 143.763 164.169 143.4C164.745 143.027 165.46 142.84 166.313 142.84C166.889 142.84 167.412 142.941 167.881 143.144C168.35 143.336 168.718 143.635 168.985 144.04C169.262 144.435 169.401 144.947 169.401 145.576V149.448C169.401 149.832 169.604 150.024 170.009 150.024C170.212 150.024 170.409 149.997 170.601 149.944L170.537 150.952C170.324 151.059 170.046 151.112 169.705 151.112C169.31 151.112 168.969 151.016 168.681 150.824C168.404 150.632 168.222 150.339 168.137 149.944C167.86 150.36 167.481 150.669 167.001 150.872C166.521 151.064 166.046 151.16 165.577 151.16C165.108 151.16 164.67 151.08 164.265 150.92C163.86 150.76 163.534 150.52 163.289 150.2C163.054 149.869 162.937 149.464 162.937 148.984C162.937 148.387 163.134 147.896 163.529 147.512C163.934 147.117 164.494 146.851 165.209 146.712L168.121 146.136V145.832ZM164.249 148.92C164.249 149.251 164.377 149.523 164.633 149.736C164.9 149.939 165.273 150.04 165.753 150.04C166.169 150.04 166.553 149.971 166.905 149.832C167.268 149.683 167.561 149.464 167.785 149.176C168.009 148.877 168.121 148.499 168.121 148.04V147.192L165.801 147.672C165.278 147.779 164.889 147.928 164.633 148.12C164.377 148.312 164.249 148.579 164.249 148.92ZM176.999 143V144.104H174.087V148.792C174.087 149.187 174.199 149.48 174.423 149.672C174.647 149.864 174.935 149.96 175.287 149.96C175.596 149.96 175.863 149.907 176.087 149.8C176.311 149.693 176.514 149.549 176.695 149.368L177.143 150.44C176.898 150.664 176.604 150.84 176.263 150.968C175.932 151.096 175.548 151.16 175.111 151.16C174.706 151.16 174.327 151.091 173.975 150.952C173.623 150.803 173.34 150.573 173.127 150.264C172.924 149.944 172.818 149.528 172.807 149.016V144.104H171.207V143H172.807V141.08L174.087 140.728V143H176.999ZM182.246 151.16C181.489 151.16 180.811 150.995 180.214 150.664C179.627 150.333 179.169 149.859 178.838 149.24C178.507 148.611 178.342 147.864 178.342 147C178.342 146.136 178.507 145.395 178.838 144.776C179.169 144.147 179.622 143.667 180.198 143.336C180.774 143.005 181.43 142.84 182.166 142.84C182.913 142.84 183.547 143 184.07 143.32C184.603 143.64 185.009 144.077 185.286 144.632C185.563 145.176 185.702 145.789 185.702 146.472C185.702 146.653 185.697 146.819 185.686 146.968C185.675 147.117 185.659 147.251 185.638 147.368H179.606C179.67 148.211 179.931 148.867 180.39 149.336C180.849 149.805 181.457 150.04 182.214 150.04C182.801 150.04 183.275 149.928 183.638 149.704C184.011 149.48 184.31 149.176 184.534 148.792L185.542 149.384C185.243 149.928 184.811 150.36 184.246 150.68C183.691 151 183.025 151.16 182.246 151.16ZM182.134 143.96C181.462 143.96 180.907 144.163 180.47 144.568C180.043 144.963 179.771 145.517 179.654 146.232H184.422C184.39 145.507 184.166 144.947 183.75 144.552C183.334 144.157 182.795 143.96 182.134 143.96ZM189.352 139.32V148.968C189.352 149.373 189.427 149.656 189.576 149.816C189.726 149.965 189.966 150.04 190.296 150.04C190.51 150.04 190.686 150.024 190.824 149.992C190.963 149.96 191.15 149.901 191.384 149.816L191.176 150.936C190.824 151.085 190.43 151.16 189.992 151.16C188.712 151.16 188.072 150.445 188.072 149.016V139.32H189.352ZM199.197 143L195.437 152.344C195.127 153.123 194.775 153.667 194.381 153.976C193.997 154.285 193.522 154.44 192.957 154.44C192.594 154.44 192.258 154.387 191.949 154.28C191.65 154.184 191.383 154.051 191.149 153.88L191.501 152.76C191.714 152.952 191.938 153.091 192.173 153.176C192.418 153.272 192.658 153.32 192.893 153.32C193.17 153.32 193.431 153.235 193.677 153.064C193.922 152.893 194.146 152.547 194.349 152.024L194.765 150.984L193.965 149.08L191.421 143H192.877L194.877 148.216L195.373 149.64L195.949 148.056L197.821 143H199.197ZM209.23 142.84C209.987 142.84 210.654 143.005 211.23 143.336C211.816 143.667 212.275 144.147 212.606 144.776C212.936 145.395 213.102 146.136 213.102 147C213.102 147.864 212.936 148.611 212.606 149.24C212.275 149.859 211.816 150.333 211.23 150.664C210.654 150.995 209.987 151.16 209.23 151.16C208.483 151.16 207.816 150.995 207.23 150.664C206.643 150.333 206.184 149.859 205.854 149.24C205.523 148.611 205.358 147.864 205.358 147C205.358 146.136 205.523 145.395 205.854 144.776C206.184 144.147 206.643 143.667 207.23 143.336C207.816 143.005 208.483 142.84 209.23 142.84ZM209.23 143.944C208.419 143.944 207.784 144.216 207.326 144.76C206.867 145.304 206.638 146.051 206.638 147C206.638 147.949 206.867 148.696 207.326 149.24C207.784 149.784 208.419 150.056 209.23 150.056C210.04 150.056 210.675 149.784 211.134 149.24C211.592 148.696 211.822 147.949 211.822 147C211.822 146.051 211.592 145.304 211.134 144.76C210.675 144.216 210.04 143.944 209.23 143.944ZM215.511 151V143H216.551L216.727 144.312C217.175 143.331 218.029 142.84 219.287 142.84C219.426 142.84 219.575 142.851 219.735 142.872C219.906 142.893 220.05 142.936 220.167 143L219.943 144.168C219.826 144.125 219.698 144.093 219.559 144.072C219.421 144.051 219.223 144.04 218.967 144.04C218.637 144.04 218.301 144.136 217.959 144.328C217.629 144.52 217.351 144.813 217.127 145.208C216.903 145.592 216.791 146.083 216.791 146.68V151H215.511ZM94.0739 178.36V167H95.1939L95.2739 168.408C95.5193 167.939 95.8819 167.56 96.3619 167.272C96.8526 166.984 97.4126 166.84 98.0419 166.84C98.6926 166.84 99.2899 167.005 99.8339 167.336C100.389 167.667 100.831 168.141 101.162 168.76C101.493 169.379 101.658 170.125 101.658 171C101.658 171.864 101.487 172.611 101.146 173.24C100.815 173.859 100.373 174.333 99.8179 174.664C99.2633 174.995 98.6553 175.16 97.9939 175.16C97.3966 175.16 96.8686 175.032 96.4099 174.776C95.9513 174.509 95.5993 174.168 95.3539 173.752V178.36H94.0739ZM97.8659 174.04C98.6553 174.04 99.2686 173.763 99.7059 173.208C100.154 172.653 100.378 171.917 100.378 171C100.378 170.083 100.159 169.347 99.7219 168.792C99.2953 168.237 98.6926 167.96 97.9139 167.96C97.1459 167.96 96.5273 168.237 96.0579 168.792C95.5886 169.347 95.3539 170.083 95.3539 171C95.3539 171.917 95.5833 172.653 96.0419 173.208C96.5006 173.763 97.1086 174.04 97.8659 174.04ZM107.001 175.16C106.489 175.16 106.004 175.064 105.545 174.872C105.097 174.68 104.729 174.371 104.441 173.944C104.164 173.507 104.025 172.941 104.025 172.248V167H105.305V171.912C105.305 172.723 105.481 173.283 105.833 173.592C106.185 173.891 106.681 174.04 107.321 174.04C107.727 174.04 108.111 173.949 108.473 173.768C108.836 173.576 109.135 173.283 109.369 172.888C109.604 172.493 109.721 171.981 109.721 171.352V167H111.001V175H109.881L109.801 173.784C109.524 174.264 109.145 174.616 108.665 174.84C108.196 175.053 107.641 175.16 107.001 175.16ZM117.9 175.16C117.292 175.16 116.748 175.016 116.268 174.728C115.788 174.44 115.426 174.061 115.18 173.592L115.1 175H113.98V163.32H115.26V168.248C115.516 167.832 115.874 167.496 116.332 167.24C116.802 166.973 117.33 166.84 117.916 166.84C118.578 166.84 119.186 167.005 119.74 167.336C120.295 167.667 120.738 168.141 121.068 168.76C121.399 169.379 121.564 170.125 121.564 171C121.564 171.864 121.394 172.611 121.052 173.24C120.722 173.859 120.279 174.333 119.724 174.664C119.17 174.995 118.562 175.16 117.9 175.16ZM117.772 174.04C118.562 174.04 119.175 173.763 119.612 173.208C120.06 172.653 120.284 171.917 120.284 171C120.284 170.083 120.066 169.347 119.628 168.792C119.191 168.237 118.578 167.96 117.788 167.96C117.042 167.96 116.434 168.243 115.964 168.808C115.495 169.373 115.26 170.115 115.26 171.032C115.26 171.949 115.49 172.68 115.948 173.224C116.418 173.768 117.026 174.04 117.772 174.04ZM125.227 163.32V172.968C125.227 173.373 125.302 173.656 125.451 173.816C125.601 173.965 125.841 174.04 126.171 174.04C126.385 174.04 126.561 174.024 126.699 173.992C126.838 173.96 127.025 173.901 127.259 173.816L127.051 174.936C126.699 175.085 126.305 175.16 125.867 175.16C124.587 175.16 123.947 174.445 123.947 173.016V163.32H125.227ZM129.542 165.464C129.254 165.464 129.019 165.379 128.838 165.208C128.667 165.027 128.582 164.792 128.582 164.504C128.582 164.216 128.667 163.987 128.838 163.816C129.019 163.635 129.254 163.544 129.542 163.544C129.83 163.544 130.059 163.635 130.23 163.816C130.411 163.987 130.502 164.216 130.502 164.504C130.502 164.792 130.411 165.027 130.23 165.208C130.059 165.379 129.83 165.464 129.542 165.464ZM130.182 167V175H128.902V167H130.182ZM136.464 166.84C137.285 166.84 137.968 167.032 138.512 167.416C139.056 167.789 139.477 168.307 139.776 168.968L138.56 169.544C138.389 169.032 138.128 168.643 137.776 168.376C137.435 168.099 136.987 167.96 136.432 167.96C135.632 167.96 135.003 168.232 134.544 168.776C134.096 169.309 133.872 170.051 133.872 171C133.872 171.949 134.096 172.696 134.544 173.24C135.003 173.773 135.632 174.04 136.432 174.04C137.061 174.04 137.563 173.896 137.936 173.608C138.309 173.32 138.555 172.915 138.672 172.392L139.856 172.808C139.589 173.544 139.168 174.12 138.592 174.536C138.027 174.952 137.317 175.16 136.464 175.16C135.717 175.16 135.051 174.995 134.464 174.664C133.877 174.333 133.419 173.859 133.088 173.24C132.757 172.611 132.592 171.864 132.592 171C132.592 170.136 132.757 169.395 133.088 168.776C133.419 168.147 133.877 167.667 134.464 167.336C135.051 167.005 135.717 166.84 136.464 166.84ZM143.321 163.32V172.968C143.321 173.373 143.396 173.656 143.545 173.816C143.695 173.965 143.935 174.04 144.265 174.04C144.479 174.04 144.655 174.024 144.793 173.992C144.932 173.96 145.119 173.901 145.353 173.816L145.145 174.936C144.793 175.085 144.399 175.16 143.961 175.16C142.681 175.16 142.041 174.445 142.041 173.016V163.32H143.321ZM153.166 167L149.406 176.344C149.096 177.123 148.744 177.667 148.35 177.976C147.966 178.285 147.491 178.44 146.926 178.44C146.563 178.44 146.227 178.387 145.918 178.28C145.619 178.184 145.352 178.051 145.118 177.88L145.47 176.76C145.683 176.952 145.907 177.091 146.142 177.176C146.387 177.272 146.627 177.32 146.862 177.32C147.139 177.32 147.4 177.235 147.646 177.064C147.891 176.893 148.115 176.547 148.318 176.024L148.734 174.984L147.934 173.08L145.39 167H146.846L148.846 172.216L149.342 173.64L149.918 172.056L151.79 167H153.166ZM154.292 173.08C154.601 173.08 154.852 173.176 155.044 173.368C155.236 173.56 155.332 173.811 155.332 174.12C155.332 174.429 155.236 174.68 155.044 174.872C154.852 175.064 154.601 175.16 154.292 175.16C153.983 175.16 153.732 175.064 153.54 174.872C153.348 174.68 153.252 174.429 153.252 174.12C153.252 173.811 153.348 173.56 153.54 173.368C153.732 173.176 153.983 173.08 154.292 173.08Z" fill="#647582"/>
</svg>