<?xml version="1.0" encoding="iso-8859-1"?>
<svg width="16" height="16" viewBox="0 0 16 16" fill="none" xmlns="http://www.w3.org/2000/svg">
<path d="M13.5118 2.48816L14.2189 1.78105V1.78105L13.5118 2.48816ZM4.33333 14.0237V15.0237C4.59855 15.0237 4.8529 14.9183 5.04044 14.7308L4.33333 14.0237ZM2 14.0237H1C1 14.5759 1.44772 15.0237 2 15.0237V14.0237ZM2 11.6429L1.29289 10.9358C1.10536 11.1234 1 11.3777 1 11.6429H2ZM11.8619 3.19526C12.1222 2.93491 12.5444 2.93491 12.8047 3.19526L14.2189 1.78105C13.1775 0.73965 11.4891 0.73965 10.4477 1.78105L11.8619 3.19526ZM12.8047 3.19526C13.0651 3.45561 13.0651 3.87772 12.8047 4.13807L14.2189 5.55228C15.2603 4.51089 15.2603 2.82245 14.2189 1.78105L12.8047 3.19526ZM12.8047 4.13807L3.62623 13.3165L5.04044 14.7308L14.2189 5.55228L12.8047 4.13807ZM4.33333 13.0237H2V15.0237H4.33333V13.0237ZM10.4477 1.78105L1.29289 10.9358L2.70711 12.35L11.8619 3.19526L10.4477 1.78105ZM1 11.6429V14.0237H3V11.6429H1ZM9.44768 4.19526L11.8047 6.55228L13.2189 5.13807L10.8619 2.78105L9.44768 4.19526Z" fill="#111827"/>
</svg>