<?xml version="1.0" encoding="iso-8859-1"?>
<svg width="230" height="99" viewBox="0 0 230 99" fill="none" xmlns="http://www.w3.org/2000/svg">
	<path d="M103.667 22.6667L103.667 24.0834C103.667 26.4306 105.57 28.3334 107.917 28.3334L122.084 28.3334C124.431 28.3334 126.334 26.4306 126.334 24.0834L126.334 22.6667M120.667 11.3334L115 5.66671M115 5.66671L109.334 11.3334M115 5.66671L115 22.6667" stroke="#84160E" stroke-width="2.83333" stroke-linecap="round" stroke-linejoin="round"/>
	<path d="M61.8257 58.8V66.94C61.8257 68.6867 61.3657 70 60.4457 70.88C59.5257 71.76 58.1857 72.2 56.4257 72.2C54.6924 72.2 53.359 71.76 52.4257 70.88C51.5057 70 51.0457 68.6867 51.0457 66.94V58.8H53.1857V66.68C53.1857 67.9333 53.4457 68.86 53.9657 69.46C54.499 70.0467 55.319 70.34 56.4257 70.34C57.5457 70.34 58.3657 70.0467 58.8857 69.46C59.419 68.86 59.6857 67.9333 59.6857 66.68V58.8H61.8257ZM65.1073 76.2V62H67.0073L67.1073 63.88C67.4006 63.2533 67.8473 62.7533 68.4473 62.38C69.0473 61.9933 69.7406 61.8 70.5273 61.8C71.3406 61.8 72.0739 62.0067 72.7273 62.42C73.3939 62.8333 73.9206 63.4267 74.3073 64.2C74.7073 64.9733 74.9073 65.9 74.9073 66.98C74.9073 68.0733 74.7073 69.0133 74.3073 69.8C73.9073 70.5733 73.3673 71.1667 72.6873 71.58C72.0206 71.9933 71.2806 72.2 70.4673 72.2C69.7206 72.2 69.0739 72.0333 68.5273 71.7C67.9806 71.3533 67.5539 70.9067 67.2473 70.36V76.2H65.1073ZM70.0073 70.46C70.8606 70.46 71.5339 70.1533 72.0273 69.54C72.5206 68.9267 72.7673 68.08 72.7673 67C72.7673 65.92 72.5273 65.0733 72.0473 64.46C71.5673 63.8333 70.9006 63.52 70.0473 63.52C69.2073 63.52 68.5273 63.8333 68.0073 64.46C67.5006 65.0867 67.2473 65.9333 67.2473 67C67.2473 68.0533 67.4939 68.8933 67.9873 69.52C68.4939 70.1467 69.1673 70.46 70.0073 70.46ZM79.7263 57.5V69.2C79.7263 69.6933 79.813 70.0333 79.9863 70.22C80.1597 70.4067 80.4463 70.5 80.8463 70.5C81.0863 70.5 81.2863 70.4867 81.4463 70.46C81.6197 70.42 81.833 70.3533 82.0863 70.26L81.8463 71.86C81.3797 72.0867 80.8263 72.2 80.1863 72.2C79.293 72.2 78.633 71.9733 78.2063 71.52C77.793 71.0667 77.5863 70.3533 77.5863 69.38V57.5H79.7263ZM88.2168 61.8C89.1901 61.8 90.0501 62.0067 90.7968 62.42C91.5435 62.8333 92.1235 63.4333 92.5368 64.22C92.9635 64.9933 93.1768 65.92 93.1768 67C93.1768 68.08 92.9635 69.0133 92.5368 69.8C92.1235 70.5733 91.5435 71.1667 90.7968 71.58C90.0501 71.9933 89.1901 72.2 88.2168 72.2C87.2435 72.2 86.3835 71.9933 85.6368 71.58C84.8901 71.1667 84.3035 70.5733 83.8768 69.8C83.4501 69.0133 83.2368 68.08 83.2368 67C83.2368 65.92 83.4501 64.9933 83.8768 64.22C84.3035 63.4333 84.8901 62.8333 85.6368 62.42C86.3835 62.0067 87.2435 61.8 88.2168 61.8ZM88.2168 63.48C87.3368 63.48 86.6435 63.7867 86.1368 64.4C85.6301 65 85.3768 65.8667 85.3768 67C85.3768 68.1333 85.6301 69.0067 86.1368 69.62C86.6435 70.22 87.3368 70.52 88.2168 70.52C89.0968 70.52 89.7835 70.22 90.2768 69.62C90.7835 69.0067 91.0368 68.1333 91.0368 67C91.0368 65.8667 90.7835 65 90.2768 64.4C89.7835 63.7867 89.0968 63.48 88.2168 63.48ZM101.629 65.58C101.629 64.9133 101.443 64.4 101.069 64.04C100.709 63.6667 100.209 63.48 99.5695 63.48C98.9695 63.48 98.4495 63.62 98.0095 63.9C97.5828 64.18 97.2761 64.6333 97.0895 65.26L95.2895 64.5C95.5428 63.6867 96.0361 63.0333 96.7695 62.54C97.5161 62.0467 98.4761 61.8 99.6495 61.8C100.436 61.8 101.136 61.9333 101.749 62.2C102.376 62.4533 102.863 62.8467 103.209 63.38C103.569 63.9 103.749 64.56 103.749 65.36V69.82C103.749 70.3133 103.996 70.56 104.489 70.56C104.729 70.56 104.963 70.5267 105.189 70.46L105.069 71.94C104.763 72.0867 104.376 72.16 103.909 72.16C103.376 72.16 102.916 72.04 102.529 71.8C102.143 71.56 101.883 71.2 101.749 70.72C101.429 71.2133 100.969 71.5867 100.369 71.84C99.7695 72.08 99.1695 72.2 98.5695 72.2C97.6228 72.2 96.8361 71.9733 96.2095 71.52C95.5828 71.0667 95.2695 70.3867 95.2695 69.48C95.2695 68.7467 95.5095 68.14 95.9895 67.66C96.4828 67.18 97.1761 66.8467 98.0695 66.66L101.629 65.96V65.58ZM97.4295 69.32C97.4295 69.6933 97.5695 69.9933 97.8495 70.22C98.1428 70.4333 98.5295 70.54 99.0095 70.54C99.4628 70.54 99.8895 70.4667 100.289 70.32C100.689 70.1733 101.009 69.9333 101.249 69.6C101.503 69.2667 101.629 68.8333 101.629 68.3V67.46L99.1095 67.98C98.5361 68.0867 98.1095 68.24 97.8295 68.44C97.5628 68.64 97.4295 68.9333 97.4295 69.32ZM111.076 72.2C110.25 72.2 109.503 71.9933 108.836 71.58C108.17 71.1667 107.636 70.5733 107.236 69.8C106.85 69.0267 106.656 68.1 106.656 67.02C106.656 65.9 106.863 64.9533 107.276 64.18C107.69 63.4067 108.243 62.82 108.936 62.42C109.63 62.0067 110.39 61.8 111.216 61.8C111.936 61.8 112.563 61.9733 113.096 62.32C113.643 62.6533 114.05 63.1 114.316 63.66V57.5H116.456V72H114.556L114.436 70.1C114.17 70.7667 113.73 71.2867 113.116 71.66C112.503 72.02 111.823 72.2 111.076 72.2ZM111.536 70.48C112.376 70.48 113.05 70.16 113.556 69.52C114.063 68.88 114.316 68 114.316 66.88C114.316 65.84 114.063 65.0267 113.556 64.44C113.063 63.84 112.416 63.54 111.616 63.54C110.723 63.54 110.03 63.8467 109.536 64.46C109.043 65.0733 108.796 65.92 108.796 67C108.796 68.08 109.036 68.9333 109.516 69.56C109.996 70.1733 110.67 70.48 111.536 70.48ZM137.519 68.5C137.119 69.7 136.432 70.62 135.459 71.26C134.486 71.8867 133.352 72.2 132.059 72.2C130.779 72.2 129.672 71.9267 128.739 71.38C127.819 70.8333 127.106 70.0533 126.599 69.04C126.092 68.0133 125.839 66.8 125.839 65.4C125.839 64 126.092 62.7933 126.599 61.78C127.106 60.7533 127.819 59.9667 128.739 59.42C129.672 58.8733 130.772 58.6 132.039 58.6C133.346 58.6 134.452 58.8733 135.359 59.42C136.266 59.9667 136.919 60.7733 137.319 61.84L135.299 62.74C134.792 61.22 133.746 60.46 132.159 60.46C130.919 60.46 129.926 60.8933 129.179 61.76C128.446 62.6133 128.079 63.8267 128.079 65.4C128.079 66.96 128.432 68.1733 129.139 69.04C129.846 69.9067 130.832 70.34 132.099 70.34C132.912 70.34 133.612 70.1333 134.199 69.72C134.799 69.2933 135.226 68.66 135.479 67.82L137.519 68.5ZM144.291 61.8C145.264 61.8 146.124 62.0067 146.871 62.42C147.618 62.8333 148.198 63.4333 148.611 64.22C149.038 64.9933 149.251 65.92 149.251 67C149.251 68.08 149.038 69.0133 148.611 69.8C148.198 70.5733 147.618 71.1667 146.871 71.58C146.124 71.9933 145.264 72.2 144.291 72.2C143.318 72.2 142.458 71.9933 141.711 71.58C140.964 71.1667 140.378 70.5733 139.951 69.8C139.524 69.0133 139.311 68.08 139.311 67C139.311 65.92 139.524 64.9933 139.951 64.22C140.378 63.4333 140.964 62.8333 141.711 62.42C142.458 62.0067 143.318 61.8 144.291 61.8ZM144.291 63.48C143.411 63.48 142.718 63.7867 142.211 64.4C141.704 65 141.451 65.8667 141.451 67C141.451 68.1333 141.704 69.0067 142.211 69.62C142.718 70.22 143.411 70.52 144.291 70.52C145.171 70.52 145.858 70.22 146.351 69.62C146.858 69.0067 147.111 68.1333 147.111 67C147.111 65.8667 146.858 65 146.351 64.4C145.858 63.7867 145.171 63.48 144.291 63.48ZM158.465 62H160.705L156.725 72H154.385L150.385 62H152.745L155.565 70.14L158.465 62ZM166.871 72.2C165.871 72.2 164.991 71.9933 164.231 71.58C163.484 71.1667 162.897 70.5733 162.471 69.8C162.044 69.0133 161.831 68.08 161.831 67C161.831 65.92 162.037 64.9933 162.451 64.22C162.877 63.4333 163.457 62.8333 164.191 62.42C164.937 62.0067 165.791 61.8 166.751 61.8C167.724 61.8 168.551 62 169.231 62.4C169.911 62.8 170.431 63.3467 170.791 64.04C171.151 64.7333 171.331 65.52 171.331 66.4C171.331 66.6533 171.324 66.8867 171.311 67.1C171.297 67.3133 171.277 67.4933 171.251 67.64H163.931C164.024 68.5733 164.324 69.2867 164.831 69.78C165.351 70.26 166.017 70.5 166.831 70.5C167.497 70.5 168.037 70.3733 168.451 70.12C168.864 69.8667 169.191 69.5133 169.431 69.06L171.131 69.86C170.784 70.5933 170.231 71.1667 169.471 71.58C168.724 71.9933 167.857 72.2 166.871 72.2ZM166.711 63.5C165.977 63.5 165.371 63.7133 164.891 64.14C164.424 64.5667 164.124 65.1867 163.991 66H169.251C169.197 65.2 168.944 64.5867 168.491 64.16C168.037 63.72 167.444 63.5 166.711 63.5ZM174.033 72V62H175.853L176.053 63.8C176.6 62.4667 177.646 61.8 179.193 61.8C179.393 61.8 179.593 61.82 179.793 61.86C179.993 61.8867 180.16 61.9333 180.293 62L179.993 63.88C179.846 63.8267 179.68 63.7867 179.493 63.76C179.32 63.72 179.08 63.7 178.773 63.7C178.346 63.7 177.933 63.8133 177.533 64.04C177.146 64.2533 176.82 64.5867 176.553 65.04C176.3 65.48 176.173 66.0333 176.173 66.7V72H174.033Z" fill="black"/>
	<path d="M27.0172 86.76C27.6425 86.76 28.1838 86.8767 28.6412 87.11C29.1078 87.334 29.4718 87.656 29.7332 88.076C29.9945 88.496 30.1252 88.9953 30.1252 89.574C30.1252 90.1527 29.9945 90.652 29.7332 91.072C29.4718 91.492 29.1078 91.8187 28.6412 92.052C28.1838 92.276 27.6425 92.388 27.0172 92.388H24.8752V96H23.7552V86.76H27.0172ZM26.8492 91.338C27.5772 91.338 28.1092 91.1887 28.4452 90.89C28.7812 90.582 28.9492 90.1433 28.9492 89.574C28.9492 88.9953 28.7812 88.5567 28.4452 88.258C28.1092 87.9593 27.5772 87.81 26.8492 87.81H24.8752V91.338H26.8492ZM39.5521 86.76V96H38.1661L34.3021 89.812L33.3221 88.076H33.3081L33.3641 89.476V96H32.3001V86.76H33.6861L37.5361 92.92L38.5301 94.698H38.5441L38.4881 93.284V86.76H39.5521ZM46.3053 96.14C45.428 96.14 44.6673 95.9487 44.0233 95.566C43.3887 95.174 42.894 94.6233 42.5393 93.914C42.194 93.2047 42.0213 92.36 42.0213 91.38C42.0213 90.4 42.2033 89.5553 42.5673 88.846C42.9407 88.1367 43.4587 87.5907 44.1213 87.208C44.784 86.816 45.5447 86.62 46.4033 86.62C47.318 86.62 48.06 86.7927 48.6293 87.138C49.208 87.4833 49.6747 88.0153 50.0293 88.734L49.0073 89.294C48.802 88.762 48.4753 88.3607 48.0273 88.09C47.5887 87.81 47.0473 87.67 46.4033 87.67C45.778 87.67 45.2227 87.8193 44.7373 88.118C44.2613 88.4073 43.8833 88.832 43.6033 89.392C43.3327 89.9427 43.1973 90.6053 43.1973 91.38C43.1973 92.5373 43.4633 93.4473 43.9953 94.11C44.5367 94.7633 45.3207 95.09 46.3473 95.09C46.8607 95.09 47.3227 95.006 47.7333 94.838C48.144 94.6607 48.4707 94.3947 48.7133 94.04C48.956 93.6853 49.0773 93.242 49.0773 92.71V92.388H46.1373V91.338H50.0993V96H49.2173L49.1753 94.754C48.8953 95.202 48.5127 95.5473 48.0273 95.79C47.5513 96.0233 46.9773 96.14 46.3053 96.14ZM53.0622 94.32C53.3889 94.32 53.6455 94.446 53.8322 94.698C54.0189 94.95 54.1122 95.2767 54.1122 95.678C54.1122 96.1447 53.9909 96.5927 53.7482 97.022C53.5055 97.4513 53.1182 97.792 52.5862 98.044L51.9982 97.498C52.3809 97.3673 52.6889 97.1667 52.9222 96.896C53.1555 96.6347 53.3049 96.3593 53.3702 96.07L53.3142 96.042C53.2769 96.07 53.2302 96.0933 53.1742 96.112C53.1182 96.1307 53.0342 96.14 52.9222 96.14C52.7542 96.14 52.5815 96.07 52.4042 95.93C52.2362 95.7807 52.1522 95.5567 52.1522 95.258C52.1522 95.006 52.2409 94.7867 52.4182 94.6C52.5955 94.4133 52.8102 94.32 53.0622 94.32ZM65.8586 86.76V92.836C65.8586 93.872 65.5786 94.684 65.0186 95.272C64.468 95.8507 63.7026 96.14 62.7226 96.14C61.6866 96.14 60.9306 95.8507 60.4546 95.272C59.9786 94.6933 59.8293 93.9187 60.0066 92.948L61.0426 92.738C60.94 93.5313 61.01 94.124 61.2526 94.516C61.5046 94.8987 61.9806 95.09 62.6806 95.09C63.474 95.09 64.0153 94.8753 64.3046 94.446C64.594 94.0073 64.7386 93.3773 64.7386 92.556V86.76H65.8586ZM72.0523 86.76C72.6777 86.76 73.219 86.8767 73.6763 87.11C74.143 87.334 74.507 87.656 74.7683 88.076C75.0297 88.496 75.1603 88.9953 75.1603 89.574C75.1603 90.1527 75.0297 90.652 74.7683 91.072C74.507 91.492 74.143 91.8187 73.6763 92.052C73.219 92.276 72.6777 92.388 72.0523 92.388H69.9103V96H68.7903V86.76H72.0523ZM71.8843 91.338C72.6123 91.338 73.1443 91.1887 73.4803 90.89C73.8163 90.582 73.9843 90.1433 73.9843 89.574C73.9843 88.9953 73.8163 88.5567 73.4803 88.258C73.1443 87.9593 72.6123 87.81 71.8843 87.81H69.9103V91.338H71.8843ZM81.0592 96.14C80.1819 96.14 79.4212 95.9487 78.7772 95.566C78.1426 95.174 77.6479 94.6233 77.2932 93.914C76.9479 93.2047 76.7752 92.36 76.7752 91.38C76.7752 90.4 76.9572 89.5553 77.3212 88.846C77.6946 88.1367 78.2126 87.5907 78.8752 87.208C79.5379 86.816 80.2986 86.62 81.1572 86.62C82.0719 86.62 82.8139 86.7927 83.3832 87.138C83.9619 87.4833 84.4286 88.0153 84.7832 88.734L83.7612 89.294C83.5559 88.762 83.2292 88.3607 82.7812 88.09C82.3426 87.81 81.8012 87.67 81.1572 87.67C80.5319 87.67 79.9766 87.8193 79.4912 88.118C79.0152 88.4073 78.6372 88.832 78.3572 89.392C78.0866 89.9427 77.9512 90.6053 77.9512 91.38C77.9512 92.5373 78.2172 93.4473 78.7492 94.11C79.2906 94.7633 80.0746 95.09 81.1012 95.09C81.6146 95.09 82.0766 95.006 82.4872 94.838C82.8979 94.6607 83.2246 94.3947 83.4672 94.04C83.7099 93.6853 83.8312 93.242 83.8312 92.71V92.388H80.8912V91.338H84.8532V96H83.9712L83.9292 94.754C83.6492 95.202 83.2666 95.5473 82.7812 95.79C82.3052 96.0233 81.7312 96.14 81.0592 96.14ZM94.9256 88.86C95.5883 88.86 96.1716 89.0047 96.6756 89.294C97.1889 89.5833 97.5903 90.0033 97.8796 90.554C98.1689 91.0953 98.3136 91.744 98.3136 92.5C98.3136 93.256 98.1689 93.9093 97.8796 94.46C97.5903 95.0013 97.1889 95.4167 96.6756 95.706C96.1716 95.9953 95.5883 96.14 94.9256 96.14C94.2723 96.14 93.6889 95.9953 93.1756 95.706C92.6623 95.4167 92.2609 95.0013 91.9716 94.46C91.6823 93.9093 91.5376 93.256 91.5376 92.5C91.5376 91.744 91.6823 91.0953 91.9716 90.554C92.2609 90.0033 92.6623 89.5833 93.1756 89.294C93.6889 89.0047 94.2723 88.86 94.9256 88.86ZM94.9256 89.826C94.2163 89.826 93.6609 90.064 93.2596 90.54C92.8583 91.016 92.6576 91.6693 92.6576 92.5C92.6576 93.3307 92.8583 93.984 93.2596 94.46C93.6609 94.936 94.2163 95.174 94.9256 95.174C95.6349 95.174 96.1903 94.936 96.5916 94.46C96.9929 93.984 97.1936 93.3307 97.1936 92.5C97.1936 91.6693 96.9929 91.016 96.5916 90.54C96.1903 90.064 95.6349 89.826 94.9256 89.826ZM100.422 96V89H101.332L101.486 90.148C101.878 89.2893 102.625 88.86 103.726 88.86C103.847 88.86 103.978 88.8693 104.118 88.888C104.267 88.9067 104.393 88.944 104.496 89L104.3 90.022C104.197 89.9847 104.085 89.9567 103.964 89.938C103.843 89.9193 103.67 89.91 103.446 89.91C103.157 89.91 102.863 89.994 102.564 90.162C102.275 90.33 102.032 90.5867 101.836 90.932C101.64 91.268 101.542 91.6973 101.542 92.22V96H100.422ZM114.514 96.14C113.637 96.14 112.876 95.9487 112.232 95.566C111.598 95.174 111.103 94.6233 110.748 93.914C110.403 93.2047 110.23 92.36 110.23 91.38C110.23 90.4 110.412 89.5553 110.776 88.846C111.15 88.1367 111.668 87.5907 112.33 87.208C112.993 86.816 113.754 86.62 114.612 86.62C115.527 86.62 116.269 86.7927 116.838 87.138C117.417 87.4833 117.884 88.0153 118.238 88.734L117.216 89.294C117.011 88.762 116.684 88.3607 116.236 88.09C115.798 87.81 115.256 87.67 114.612 87.67C113.987 87.67 113.432 87.8193 112.946 88.118C112.47 88.4073 112.092 88.832 111.812 89.392C111.542 89.9427 111.406 90.6053 111.406 91.38C111.406 92.5373 111.672 93.4473 112.204 94.11C112.746 94.7633 113.53 95.09 114.556 95.09C115.07 95.09 115.532 95.006 115.942 94.838C116.353 94.6607 116.68 94.3947 116.922 94.04C117.165 93.6853 117.286 93.242 117.286 92.71V92.388H114.346V91.338H118.308V96H117.426L117.384 94.754C117.104 95.202 116.722 95.5473 116.236 95.79C115.76 96.0233 115.186 96.14 114.514 96.14ZM122.041 86.76V96H120.921V86.76H122.041ZM131.532 87.81H126.184V90.792H130.356V91.842H126.184V96H125.064V86.76H131.532V87.81ZM140.376 96.14C139.928 96.14 139.503 96.056 139.102 95.888C138.71 95.72 138.388 95.4493 138.136 95.076C137.893 94.6933 137.772 94.1987 137.772 93.592V89H138.892V93.298C138.892 94.0073 139.046 94.4973 139.354 94.768C139.662 95.0293 140.096 95.16 140.656 95.16C141.011 95.16 141.347 95.0807 141.664 94.922C141.981 94.754 142.243 94.4973 142.448 94.152C142.653 93.8067 142.756 93.3587 142.756 92.808V89H143.876V96H142.896L142.826 94.936C142.583 95.356 142.252 95.664 141.832 95.86C141.421 96.0467 140.936 96.14 140.376 96.14ZM146.483 98.94V89H147.463L147.533 90.232C147.747 89.8213 148.065 89.49 148.485 89.238C148.914 88.986 149.404 88.86 149.955 88.86C150.524 88.86 151.047 89.0047 151.523 89.294C152.008 89.5833 152.395 89.9987 152.685 90.54C152.974 91.0813 153.119 91.7347 153.119 92.5C153.119 93.256 152.969 93.9093 152.671 94.46C152.381 95.0013 151.994 95.4167 151.509 95.706C151.023 95.9953 150.491 96.14 149.913 96.14C149.39 96.14 148.928 96.028 148.527 95.804C148.125 95.5707 147.817 95.272 147.603 94.908V98.94H146.483ZM149.801 95.16C150.491 95.16 151.028 94.9173 151.411 94.432C151.803 93.9467 151.999 93.3027 151.999 92.5C151.999 91.6973 151.807 91.0533 151.425 90.568C151.051 90.0827 150.524 89.84 149.843 89.84C149.171 89.84 148.629 90.0827 148.219 90.568C147.808 91.0533 147.603 91.6973 147.603 92.5C147.603 93.3027 147.803 93.9467 148.205 94.432C148.606 94.9173 149.138 95.16 149.801 95.16ZM163.958 89V89.966H161.41V94.068C161.41 94.4133 161.508 94.67 161.704 94.838C161.9 95.006 162.152 95.09 162.46 95.09C162.731 95.09 162.964 95.0433 163.16 94.95C163.356 94.8567 163.533 94.7307 163.692 94.572L164.084 95.51C163.869 95.706 163.613 95.86 163.314 95.972C163.025 96.084 162.689 96.14 162.306 96.14C161.951 96.14 161.62 96.0793 161.312 95.958C161.004 95.8273 160.757 95.6267 160.57 95.356C160.393 95.076 160.299 94.712 160.29 94.264V89.966H158.89V89H160.29V87.32L161.41 87.012V89H163.958ZM168.521 88.86C169.184 88.86 169.767 89.0047 170.271 89.294C170.785 89.5833 171.186 90.0033 171.475 90.554C171.765 91.0953 171.909 91.744 171.909 92.5C171.909 93.256 171.765 93.9093 171.475 94.46C171.186 95.0013 170.785 95.4167 170.271 95.706C169.767 95.9953 169.184 96.14 168.521 96.14C167.868 96.14 167.285 95.9953 166.771 95.706C166.258 95.4167 165.857 95.0013 165.567 94.46C165.278 93.9093 165.133 93.256 165.133 92.5C165.133 91.744 165.278 91.0953 165.567 90.554C165.857 90.0033 166.258 89.5833 166.771 89.294C167.285 89.0047 167.868 88.86 168.521 88.86ZM168.521 89.826C167.812 89.826 167.257 90.064 166.855 90.54C166.454 91.016 166.253 91.6693 166.253 92.5C166.253 93.3307 166.454 93.984 166.855 94.46C167.257 94.936 167.812 95.174 168.521 95.174C169.231 95.174 169.786 94.936 170.187 94.46C170.589 93.984 170.789 93.3307 170.789 92.5C170.789 91.6693 170.589 91.016 170.187 90.54C169.786 90.064 169.231 89.826 168.521 89.826ZM181.505 96.14C180.684 96.14 180.021 95.9533 179.517 95.58C179.023 95.2067 178.64 94.6887 178.369 94.026L179.461 93.452C179.611 93.9373 179.839 94.334 180.147 94.642C180.465 94.9407 180.927 95.09 181.533 95.09C182.168 95.09 182.667 94.9173 183.031 94.572C183.405 94.2173 183.591 93.732 183.591 93.116C183.591 92.4627 183.419 91.968 183.073 91.632C182.737 91.296 182.257 91.128 181.631 91.128C181.183 91.128 180.782 91.198 180.427 91.338C180.073 91.478 179.788 91.7067 179.573 92.024L178.593 91.842L179.139 86.76H184.333V87.81H180.091L179.727 90.722L179.699 90.848H179.727C179.951 90.6147 180.236 90.428 180.581 90.288C180.936 90.148 181.356 90.078 181.841 90.078C182.429 90.078 182.938 90.204 183.367 90.456C183.806 90.6987 184.147 91.044 184.389 91.492C184.632 91.94 184.753 92.4627 184.753 93.06C184.753 93.6947 184.613 94.2453 184.333 94.712C184.063 95.1693 183.685 95.524 183.199 95.776C182.714 96.0187 182.149 96.14 181.505 96.14ZM186.938 96V89H187.918L187.988 90.092C188.24 89.6627 188.566 89.35 188.968 89.154C189.378 88.958 189.798 88.86 190.228 88.86C190.722 88.86 191.189 88.972 191.628 89.196C192.066 89.42 192.402 89.7653 192.636 90.232C192.785 89.9147 192.995 89.658 193.266 89.462C193.536 89.2567 193.83 89.1073 194.148 89.014C194.474 88.9113 194.782 88.86 195.072 88.86C195.52 88.86 195.944 88.9533 196.346 89.14C196.756 89.3267 197.092 89.616 197.354 90.008C197.615 90.4 197.746 90.904 197.746 91.52V96H196.626V91.632C196.626 90.9973 196.467 90.54 196.15 90.26C195.832 89.98 195.44 89.84 194.974 89.84C194.61 89.84 194.269 89.9287 193.952 90.106C193.634 90.2833 193.378 90.5447 193.182 90.89C192.995 91.2353 192.902 91.66 192.902 92.164V96H191.782V91.632C191.782 90.9973 191.623 90.54 191.306 90.26C190.988 89.98 190.596 89.84 190.13 89.84C189.822 89.84 189.504 89.924 189.178 90.092C188.86 90.2507 188.594 90.5073 188.38 90.862C188.165 91.2167 188.058 91.6833 188.058 92.262V96H186.938ZM203.711 96.14C203.179 96.14 202.703 96.014 202.283 95.762C201.863 95.51 201.546 95.1787 201.331 94.768L201.261 96H200.281V85.78H201.401V90.092C201.625 89.728 201.938 89.434 202.339 89.21C202.75 88.9767 203.212 88.86 203.725 88.86C204.304 88.86 204.836 89.0047 205.321 89.294C205.807 89.5833 206.194 89.9987 206.483 90.54C206.773 91.0813 206.917 91.7347 206.917 92.5C206.917 93.256 206.768 93.9093 206.469 94.46C206.18 95.0013 205.793 95.4167 205.307 95.706C204.822 95.9953 204.29 96.14 203.711 96.14ZM203.599 95.16C204.29 95.16 204.827 94.9173 205.209 94.432C205.601 93.9467 205.797 93.3027 205.797 92.5C205.797 91.6973 205.606 91.0533 205.223 90.568C204.841 90.0827 204.304 89.84 203.613 89.84C202.96 89.84 202.428 90.0873 202.017 90.582C201.607 91.0767 201.401 91.7253 201.401 92.528C201.401 93.3307 201.602 93.97 202.003 94.446C202.414 94.922 202.946 95.16 203.599 95.16Z" fill="#647582"/>
</svg>